<?xml version="1.0" encoding="UTF-8" standalone="no"?>
<!DOCTYPE svg PUBLIC "-//W3C//DTD SVG 1.1//EN" "http://www.w3.org/Graphics/SVG/1.1/DTD/svg11.dtd">
<svg width="100%" height="100%" viewBox="0 0 347 350" version="1.1" xmlns="http://www.w3.org/2000/svg" xmlns:xlink="http://www.w3.org/1999/xlink" xml:space="preserve" xmlns:serif="http://www.serif.com/" style="fill-rule:evenodd;clip-rule:evenodd;stroke-miterlimit:10;">
    <g transform="matrix(1,0,0,1,-2130.99,-985.728)">
        <g transform="matrix(4.16667,0,0,4.16667,0,0)">
            <g transform="matrix(-1,0,0,1,1105.99,103.128)">
                <rect x="516.486" y="184.509" width="73.021" height="27.854" style="fill:none;stroke:rgb(48,48,48);stroke-width:1px;"/>
            </g>
            <g transform="matrix(-1,0,0,1,1105.99,47.358)">
                <rect x="529.967" y="212.394" width="46.057" height="27.854" style="fill:none;stroke:rgb(48,48,48);stroke-width:1px;"/>
            </g>
            <g transform="matrix(1,0,0,1,557.634,257.858)">
                <path d="M0,-16.258C-2.06,-16.258 -3.821,-15.053 -4.638,-13.304C-5.454,-15.053 -7.216,-16.258 -9.275,-16.258C-12.112,-16.258 -14.418,-13.965 -14.418,-11.128C-14.418,-9.25 -13.485,-7.358 -11.75,-5.688C-10.117,-4.119 -6.775,-1.594 -5.13,-0.363C-4.949,-0.221 -4.78,-0.104 -4.638,0C-4.495,-0.104 -4.327,-0.221 -4.146,-0.363C-2.487,-1.594 0.842,-4.119 2.475,-5.688C4.21,-7.358 5.143,-9.25 5.143,-11.128C5.143,-13.965 2.837,-16.258 0,-16.258Z" style="fill:none;fill-rule:nonzero;stroke:rgb(48,48,48);stroke-width:1px;"/>
            </g>
            <g transform="matrix(1,0,0,1,525.633,299.453)">
                <path d="M0,-4.585C0,-2.053 -2.053,0 -4.585,0C-7.117,0 -9.17,-2.053 -9.17,-4.585" style="fill:none;fill-rule:nonzero;stroke:rgb(48,48,48);stroke-width:1px;stroke-linecap:round;"/>
            </g>
            <g transform="matrix(1,0,0,1,534.753,299.453)">
                <path d="M0,-4.585C0,-2.053 -2.053,0 -4.585,0C-7.117,0 -9.17,-2.053 -9.17,-4.585" style="fill:none;fill-rule:nonzero;stroke:rgb(48,48,48);stroke-width:1px;stroke-linecap:round;"/>
            </g>
            <g transform="matrix(1,0,0,1,543.873,299.453)">
                <path d="M0,-4.585C0,-2.053 -2.053,0 -4.585,0C-7.117,0 -9.17,-2.053 -9.17,-4.585" style="fill:none;fill-rule:nonzero;stroke:rgb(48,48,48);stroke-width:1px;stroke-linecap:round;"/>
            </g>
            <g transform="matrix(1,0,0,1,552.993,299.453)">
                <path d="M0,-4.585C0,-2.053 -2.053,0 -4.585,0C-7.117,0 -9.17,-2.053 -9.17,-4.585" style="fill:none;fill-rule:nonzero;stroke:rgb(48,48,48);stroke-width:1px;stroke-linecap:round;"/>
            </g>
            <g transform="matrix(1,0,0,1,562.113,299.453)">
                <path d="M0,-4.585C0,-2.053 -2.053,0 -4.585,0C-7.117,0 -9.17,-2.053 -9.17,-4.585" style="fill:none;fill-rule:nonzero;stroke:rgb(48,48,48);stroke-width:1px;stroke-linecap:round;"/>
            </g>
            <g transform="matrix(1,0,0,1,571.233,299.453)">
                <path d="M0,-4.585C0,-2.053 -2.053,0 -4.585,0C-7.117,0 -9.17,-2.053 -9.17,-4.585" style="fill:none;fill-rule:nonzero;stroke:rgb(48,48,48);stroke-width:1px;stroke-linecap:round;"/>
            </g>
            <g transform="matrix(1,0,0,1,580.353,299.453)">
                <path d="M0,-4.585C0,-2.053 -2.053,0 -4.585,0C-7.117,0 -9.17,-2.053 -9.17,-4.585" style="fill:none;fill-rule:nonzero;stroke:rgb(48,48,48);stroke-width:1px;stroke-linecap:round;"/>
            </g>
            <g transform="matrix(1,0,0,1,589.474,299.453)">
                <path d="M0,-4.585C0,-2.053 -2.053,0 -4.585,0C-7.117,0 -9.17,-2.053 -9.17,-4.585" style="fill:none;fill-rule:nonzero;stroke:rgb(48,48,48);stroke-width:1px;stroke-linecap:round;"/>
            </g>
            <g transform="matrix(1,0,0,1,539.201,270.26)">
                <path d="M0,-4.617C0,-2.067 -2.066,0 -4.616,0C-7.166,0 -9.233,-2.067 -9.233,-4.617" style="fill:none;fill-rule:nonzero;stroke:rgb(48,48,48);stroke-width:1px;stroke-linecap:round;"/>
            </g>
            <g transform="matrix(1,0,0,1,548.385,270.26)">
                <path d="M0,-4.617C0,-2.067 -2.067,0 -4.617,0C-7.166,0 -9.233,-2.067 -9.233,-4.617" style="fill:none;fill-rule:nonzero;stroke:rgb(48,48,48);stroke-width:1px;stroke-linecap:round;"/>
            </g>
            <g transform="matrix(1,0,0,1,557.568,270.26)">
                <path d="M0,-4.617C0,-2.067 -2.067,0 -4.617,0C-7.167,0 -9.233,-2.067 -9.233,-4.617" style="fill:none;fill-rule:nonzero;stroke:rgb(48,48,48);stroke-width:1px;stroke-linecap:round;"/>
            </g>
            <g transform="matrix(1,0,0,1,566.751,270.26)">
                <path d="M0,-4.617C0,-2.067 -2.066,0 -4.616,0C-7.166,0 -9.233,-2.067 -9.233,-4.617" style="fill:none;fill-rule:nonzero;stroke:rgb(48,48,48);stroke-width:1px;stroke-linecap:round;"/>
            </g>
            <g transform="matrix(1,0,0,1,575.935,270.26)">
                <path d="M0,-4.617C0,-2.067 -2.067,0 -4.617,0C-7.166,0 -9.233,-2.067 -9.233,-4.617" style="fill:none;fill-rule:nonzero;stroke:rgb(48,48,48);stroke-width:1px;stroke-linecap:round;"/>
            </g>
        </g>
    </g>
</svg>
