<?xml version="1.0" encoding="UTF-8" standalone="no"?>
<!DOCTYPE svg PUBLIC "-//W3C//DTD SVG 1.1//EN" "http://www.w3.org/Graphics/SVG/1.1/DTD/svg11.dtd">
<svg width="100%" height="100%" viewBox="0 0 321 266" version="1.1" xmlns="http://www.w3.org/2000/svg" xmlns:xlink="http://www.w3.org/1999/xlink" xml:space="preserve" xmlns:serif="http://www.serif.com/" style="fill-rule:evenodd;clip-rule:evenodd;stroke-miterlimit:10;">
    <g transform="matrix(1,0,0,1,-1173.8,-1069.55)">
        <g transform="matrix(4.16667,0,0,4.16667,0,0)">
            <g transform="matrix(-1,0,0,1,640.331,86.816)">
                <rect x="286.737" y="184.51" width="66.857" height="44.164" style="fill:none;stroke:rgb(48,48,48);stroke-width:1px;"/>
            </g>
            <g transform="matrix(0,-1,-1,0,320.166,278.804)">
                <ellipse cx="-15.144" cy="-0.001" rx="15.145" ry="15.144" style="fill:none;stroke:rgb(48,48,48);stroke-width:1px;"/>
            </g>
            <g transform="matrix(1,0,0,1,320.166,284.804)">
                <path d="M0,18.288C-5.042,18.288 -9.144,14.185 -9.144,9.143C-9.144,4.101 -5.042,0 0,0C5.042,0 9.144,4.101 9.144,9.143C9.144,14.185 5.042,18.288 0,18.288Z" style="fill:none;fill-rule:nonzero;stroke:rgb(48,48,48);stroke-width:1px;"/>
            </g>
            <g transform="matrix(-1,0,0,1,638.747,33.042)">
                <rect x="311.022" y="228.674" width="16.703" height="9.61" style="fill:none;stroke:rgb(48,48,48);stroke-width:1px;stroke-linecap:round;"/>
            </g>
            <g transform="matrix(-1,0,0,1,686.356,58.163)">
                <rect x="338.876" y="218.104" width="8.604" height="5.629" style="fill:none;stroke:rgb(48,48,48);stroke-width:1px;stroke-linecap:round;"/>
            </g>
        </g>
    </g>
</svg>
