<?xml version="1.0" encoding="UTF-8" standalone="no"?>
<!DOCTYPE svg PUBLIC "-//W3C//DTD SVG 1.1//EN" "http://www.w3.org/Graphics/SVG/1.1/DTD/svg11.dtd">
<svg width="100%" height="100%" viewBox="0 0 337 231" version="1.1" xmlns="http://www.w3.org/2000/svg" xmlns:xlink="http://www.w3.org/1999/xlink" xml:space="preserve" xmlns:serif="http://www.serif.com/" style="fill-rule:evenodd;clip-rule:evenodd;stroke-linejoin:round;stroke-miterlimit:2;">
    <g transform="matrix(1,0,0,1,-773.493,-678.28)">
        <g transform="matrix(4.16667,0,0,4.16667,0,0)">
            <g transform="matrix(1,0,0,1,226.353,174.051)">
                <path d="M0,39.893C-10.999,39.893 -19.947,30.945 -19.947,19.946C-19.947,8.947 -10.999,-0.001 0,-0.001C10.999,-0.001 19.947,8.947 19.947,19.946C19.947,30.945 10.999,39.893 0,39.893M0,-2.65C-12.46,-2.65 -22.596,7.486 -22.596,19.946C-22.596,32.406 -12.46,42.543 0,42.543C12.46,42.543 22.597,32.406 22.597,19.946C22.597,7.486 12.46,-2.65 0,-2.65" style="fill-rule:nonzero;"/>
            </g>
            <g transform="matrix(1,0,0,1,257.19,191.745)">
                <path d="M0,-2.766C0.194,-12.074 2.418,-17.967 4.297,-21.314C5.07,-22.692 5.847,-23.758 6.522,-24.555L6.522,-2.766L0,-2.766ZM8.483,-28.795C8.06,-29.028 7.542,-29.01 7.134,-28.75C6.734,-28.495 -2.663,-22.258 -2.663,-1.441C-2.663,-0.71 -2.07,-0.116 -1.339,-0.116L6.522,-0.116L6.522,24.937C6.522,25.669 7.115,26.262 7.847,26.262C8.578,26.262 9.171,25.669 9.171,24.937L9.171,-27.633C9.171,-28.117 8.908,-28.563 8.483,-28.795" style="fill-rule:nonzero;"/>
            </g>
            <g transform="matrix(1,0,0,1,199.68,218.007)">
                <path d="M0,-55.22C-0.732,-55.22 -1.325,-54.627 -1.325,-53.895L-1.325,-37.292C-1.325,-37.049 -1.523,-36.85 -1.766,-36.85L-5.034,-36.85L-5.034,-53.895C-5.034,-54.627 -5.627,-55.22 -6.359,-55.22C-7.09,-55.22 -7.683,-54.627 -7.683,-53.895L-7.683,-36.85L-10.951,-36.85C-11.195,-36.85 -11.393,-37.049 -11.393,-37.292L-11.393,-53.895C-11.393,-54.627 -11.986,-55.22 -12.717,-55.22C-13.449,-55.22 -14.042,-54.627 -14.042,-53.895L-14.042,-37.292C-14.042,-35.588 -12.655,-34.201 -10.951,-34.201L-7.683,-34.201L-7.683,-1.325C-7.683,-0.593 -7.09,0 -6.359,0C-5.627,0 -5.034,-0.593 -5.034,-1.325L-5.034,-34.201L-1.766,-34.201C-0.062,-34.201 1.325,-35.588 1.325,-37.292L1.325,-53.895C1.325,-54.627 0.732,-55.22 0,-55.22" style="fill-rule:nonzero;"/>
            </g>
        </g>
    </g>
</svg>
