<?xml version="1.0" encoding="UTF-8" standalone="no"?>
<!DOCTYPE svg PUBLIC "-//W3C//DTD SVG 1.1//EN" "http://www.w3.org/Graphics/SVG/1.1/DTD/svg11.dtd">
<svg width="100%" height="100%" viewBox="0 0 42 53" version="1.1" xmlns="http://www.w3.org/2000/svg" xmlns:xlink="http://www.w3.org/1999/xlink" xml:space="preserve" xmlns:serif="http://www.serif.com/" style="fill:rgb(48,48,48);fill-rule:evenodd;clip-rule:evenodd;stroke-linejoin:round;stroke-miterlimit:2;">
    <g transform="matrix(1,0,0,1,-29.468,-23.938)">
        <path d="M61.656,42.508C61.656,38.594 58.917,35.642 55.285,35.642C53.358,35.642 51.309,36.792 49.998,38.09C48.685,36.792 46.635,35.642 44.713,35.642C41.082,35.642 38.344,38.594 38.344,42.508C38.345,48.666 49.179,54.782 49.641,55.038C49.751,55.1 49.873,55.132 49.999,55.132C50.121,55.132 50.247,55.101 50.358,55.038C50.818,54.78 61.656,48.666 61.656,42.508ZM44.768,39.03C43.495,39.318 42.479,40.167 41.907,41.424C41.784,41.694 41.516,41.854 41.236,41.854C41.133,41.854 41.031,41.833 40.93,41.788C40.559,41.62 40.396,41.183 40.565,40.811C41.322,39.153 42.735,37.979 44.444,37.592C44.84,37.501 45.235,37.752 45.324,38.15C45.414,38.545 45.164,38.941 44.768,39.03ZM53.854,71.217C59.586,65.977 70.532,54.642 70.532,44.47C70.532,33.149 61.321,23.938 50,23.938C38.679,23.938 29.468,33.148 29.468,44.47C29.468,54.642 40.412,65.977 46.145,71.217C41.839,71.567 38.761,72.484 38.761,73.563C38.761,74.944 43.793,76.063 50,76.063C56.207,76.063 61.239,74.944 61.239,73.563C61.239,72.483 58.162,71.565 53.854,71.217ZM30.968,44.47C30.968,33.975 39.506,25.438 50,25.438C60.494,25.438 69.032,33.975 69.032,44.47C69.032,56.114 52.971,70.103 50,72.59C47.029,70.103 30.968,56.113 30.968,44.47Z" style="fill-rule:nonzero;"/>
    </g>
</svg>
