<?xml version="1.0" encoding="UTF-8" standalone="no"?>
<!DOCTYPE svg PUBLIC "-//W3C//DTD SVG 1.1//EN" "http://www.w3.org/Graphics/SVG/1.1/DTD/svg11.dtd">
<svg width="100%" height="100%" viewBox="0 0 48 61" version="1.1" xmlns="http://www.w3.org/2000/svg" xmlns:xlink="http://www.w3.org/1999/xlink" xml:space="preserve" xmlns:serif="http://www.serif.com/" style="fill:rgb(48,48,48);fill-rule:evenodd;clip-rule:evenodd;stroke-linejoin:round;stroke-miterlimit:2;">
    <g transform="matrix(1,0,0,1,-8.327,-1.948)">
        <g>
            <path d="M39.381,48.714C47.08,40.75 53.752,32.506 53.752,23.705C53.752,11.708 43.994,1.948 32,1.948C20.006,1.948 10.248,11.708 10.248,23.705C10.248,32.428 17.117,40.919 24.624,48.712C16.425,49.424 8.327,51.442 8.327,55.2C8.327,59.665 20.236,62 32,62C43.764,62 55.673,59.665 55.673,55.2C55.673,51.439 47.613,49.427 39.381,48.714ZM32,3.948C42.891,3.948 51.752,12.811 51.752,23.705C51.752,32.249 44.267,40.893 36.505,48.795C36.501,48.799 36.497,48.803 36.493,48.807C35.251,50.071 34.002,51.318 32.775,52.541L32,53.315L31.29,52.606C22.364,43.709 12.248,33.624 12.248,23.705C12.248,12.811 21.109,3.948 32,3.948ZM32,60C18.77,60 10.327,57.157 10.327,55.2C10.327,53.695 15.93,51.266 26.444,50.579C27.593,51.744 28.744,52.892 29.877,54.022L31.292,55.434C31.48,55.622 31.734,55.727 31.999,55.727C32.264,55.727 32.519,55.622 32.706,55.434L34.186,53.956C35.31,52.836 36.437,51.711 37.554,50.581C48.067,51.267 53.672,53.686 53.672,55.2C53.673,57.157 45.23,60 32,60Z" style="fill-rule:nonzero;"/>
            <path d="M32,35.82C32.165,35.82 32.33,35.779 32.479,35.697C36.124,33.706 44.6,28.346 44.6,21.613C44.6,17.614 41.347,14.362 37.349,14.362C35.276,14.362 33.359,15.224 32,16.722C30.641,15.224 28.724,14.362 26.651,14.362C22.652,14.362 19.4,17.615 19.4,21.613C19.4,28.346 27.876,33.705 31.521,35.697C31.67,35.779 31.835,35.82 32,35.82ZM21.4,21.613C21.4,18.717 23.756,16.362 26.651,16.362C28.502,16.362 30.181,17.313 31.144,18.907C31.506,19.507 32.494,19.507 32.856,18.907C33.819,17.313 35.498,16.362 37.349,16.362C40.245,16.362 42.6,18.718 42.6,21.613C42.6,27.114 35.026,31.96 32,33.675C28.974,31.96 21.4,27.114 21.4,21.613Z" style="fill-rule:nonzero;"/>
        </g>
    </g>
</svg>
