<?xml version="1.0" encoding="UTF-8" standalone="no"?>
<!DOCTYPE svg PUBLIC "-//W3C//DTD SVG 1.1//EN" "http://www.w3.org/Graphics/SVG/1.1/DTD/svg11.dtd">
<svg width="100%" height="100%" viewBox="0 0 827 715" version="1.1" xmlns="http://www.w3.org/2000/svg" xmlns:xlink="http://www.w3.org/1999/xlink" xml:space="preserve" xmlns:serif="http://www.serif.com/" style="fill-rule:evenodd;clip-rule:evenodd;stroke-linejoin:round;stroke-miterlimit:2;">
    <g transform="matrix(1,0,0,1,-2543.46,-572.272)">
        <g transform="matrix(1,0,0,1,2064.83,55.7739)">
            <g transform="matrix(1.10925,0,0,1,-52.2902,0)">
                <g transform="matrix(1.1418,0,0,0.400553,539.789,672.544)">
                    <path d="M290.948,528.92C290.46,626.867 289.484,822.165 289.485,822.969C289.739,939.981 303.881,1007.62 336.198,1021.59L336.198,1031.29L233.069,1031.29L233.069,1021.59C268.758,999.832 279.518,899.849 279.781,822.658C279.783,821.927 280.763,626.813 281.252,528.92C281.333,512.475 281.442,490.655 281.523,474.233C282.011,376.286 282.988,180.988 282.986,180.185C282.732,63.173 268.591,-4.465 236.273,-18.44L236.273,-28.136L339.402,-28.136L339.402,-18.44C303.714,3.321 292.953,103.304 292.69,180.495C292.688,181.227 291.709,376.34 291.219,474.233C291.138,490.678 291.03,512.498 290.948,528.92Z" style="fill:rgb(35,31,32);"/>
                </g>
                <g transform="matrix(0.967089,-0.254438,0.254438,0.967089,-235.799,-142.153)">
                    <path d="M1037.17,978.028C1037.17,965.551 1030.28,959.313 1016.52,959.313C988.122,959.313 960.265,974.156 932.946,1003.84C905.627,1033.53 880.996,1072.89 859.055,1121.94C917.995,1092.68 962.308,1067.3 991.994,1045.79C1021.68,1024.28 1036.74,1001.69 1037.17,978.028ZM798.394,1332.96C794.952,1361.36 793.231,1389.11 793.231,1416.21C793.231,1443.31 796.458,1468.7 802.911,1492.36C829.585,1481.6 850.128,1466.44 864.54,1446.86C878.953,1427.29 886.159,1408.25 886.159,1389.75C886.159,1371.25 880.996,1356.62 870.671,1345.87C860.346,1335.11 845.933,1329.74 827.434,1329.74C818.829,1329.74 809.149,1330.81 798.394,1332.96ZM790.65,1496.23C784.196,1471.71 780.97,1445.46 780.97,1417.5C780.97,1389.54 782.906,1362.22 786.778,1335.54C752.79,1345.87 724.933,1366.73 703.207,1398.14C681.481,1429.55 670.618,1462.46 670.618,1496.88L670.618,1501.39C685.675,1504.4 704.282,1505.91 726.439,1505.91C748.595,1505.91 769.999,1502.68 790.65,1496.23ZM837.759,1147.75C759.028,1186.47 709.983,1212.5 690.623,1225.84C671.263,1239.17 654.054,1252.19 638.996,1264.88C623.938,1277.57 612.322,1289.51 604.148,1300.69C584.788,1327.37 575.108,1354.47 575.108,1382.01C575.108,1447.4 603.073,1486.55 659.002,1499.46L659.002,1496.23C659.002,1459.66 670.833,1424.92 694.495,1392.01C718.157,1359.1 749.348,1337.26 788.068,1326.51C797.533,1265.85 814.097,1206.26 837.759,1147.75ZM544.132,1393.62C544.132,1371.25 550.585,1349.1 563.492,1327.15C576.399,1305.21 590.489,1286.61 605.761,1271.33C621.034,1256.06 644.589,1238.63 676.426,1219.06C708.262,1199.49 733.43,1184.96 751.93,1175.5C805.707,1147.54 836.899,1131.83 845.503,1128.39C869.165,1075.47 896.162,1032.67 926.492,999.969C956.823,967.272 987.476,950.924 1018.45,950.924C1027.92,950.924 1035.88,952.967 1042.33,957.055C1048.78,961.142 1052.01,967.81 1052.01,977.06C1052.01,986.31 1049.64,995.99 1044.91,1006.1C1040.18,1016.21 1032.65,1026.21 1022.32,1036.11C1012,1046 1001.67,1054.93 991.348,1062.89C981.023,1070.85 967.041,1079.99 949.402,1090.32C922.298,1105.37 889.386,1122.37 850.666,1141.3C826.143,1200.67 809.149,1261.55 799.684,1323.93C811.731,1321.78 822.916,1320.7 833.242,1320.7C856.904,1320.7 874.973,1326.4 887.45,1337.8C899.926,1349.2 906.164,1364.9 906.164,1384.91C906.164,1404.92 897.237,1426.11 879.383,1448.48C861.529,1470.85 837.114,1488.27 806.138,1500.75C819.475,1541.19 842.491,1564.21 875.188,1569.8C876.049,1569.8 876.479,1571.52 876.479,1574.96C876.479,1578.4 875.834,1580.12 874.543,1580.12C835.823,1575.82 808.719,1551.08 793.231,1505.91C766.557,1514.52 742.895,1518.82 722.244,1518.82C701.594,1518.82 684.815,1518.17 671.908,1516.88C676.641,1546.57 690.946,1570.77 714.823,1589.48C738.7,1608.2 772.365,1617.55 815.818,1617.55C829.585,1617.55 844.212,1614.97 859.7,1609.81L864.863,1613.04C851.526,1620.35 832.166,1624.01 806.783,1624.01C762.47,1624.01 728.052,1613.9 703.53,1593.68C679.007,1573.46 664.594,1547.43 660.292,1515.59C582.852,1504.84 544.132,1464.18 544.132,1393.62Z" style="fill:rgb(35,31,32);fill-opacity:0.14;fill-rule:nonzero;"/>
                </g>
                <g transform="matrix(1,0,0,1,26.4987,499.462)">
                    <g transform="matrix(0.340351,0,0,0.340351,372.807,153.501)">
                        <path d="M983.178,281.181L820.111,281.181L820.111,282.063L612.09,860.289L381.152,281.181L233.069,281.181L233.069,290.877C245.41,290.877 257.75,297.929 265.683,314.676C274.497,331.423 279.786,356.985 279.786,396.65L279.786,819.743C279.786,897.31 269.209,999.557 233.069,1021.59L233.069,1031.29L336.198,1031.29L336.198,1021.59C303.585,1007.49 289.482,938.738 289.482,819.743L289.482,373.733L553.033,1031.29L561.848,1031.29L820.111,312.913L820.111,916.702C820.111,994.269 798.956,1021.59 772.513,1021.59L772.513,1031.29L983.178,1031.29L983.178,1021.59C969.956,1021.59 958.497,1015.42 949.683,998.676C940.868,981.928 935.58,955.485 935.58,916.702L935.58,396.65C935.58,319.083 956.734,290.877 983.178,290.877L983.178,281.181Z" style="fill:rgb(35,31,32);fill-rule:nonzero;"/>
                    </g>
                    <g transform="matrix(0.340351,0,0,0.340351,862.429,153.501)">
                        <path d="M983.178,281.181L820.111,281.181L820.111,282.063L612.09,860.289L381.152,281.181L233.069,281.181L233.069,290.877C245.41,290.877 257.75,297.929 265.683,314.676C274.497,331.423 279.786,356.985 279.786,396.65L279.786,819.743C279.786,897.31 269.209,999.557 233.069,1021.59L233.069,1031.29L336.198,1031.29L336.198,1021.59C303.585,1007.49 289.482,938.738 289.482,819.743L289.482,373.733L553.033,1031.29L561.848,1031.29L820.111,312.913L820.111,916.702C820.111,994.269 798.956,1021.59 772.513,1021.59L772.513,1031.29L983.178,1031.29L983.178,1021.59C969.956,1021.59 958.497,1015.42 949.683,998.676C940.868,981.928 935.58,955.485 935.58,916.702L935.58,396.65C935.58,319.083 956.734,290.877 983.178,290.877L983.178,281.181Z" style="fill:rgb(35,31,32);fill-rule:nonzero;"/>
                    </g>
                </g>
            </g>
        </g>
    </g>
</svg>
