<?xml version="1.0" encoding="UTF-8" standalone="no"?>
<!DOCTYPE svg PUBLIC "-//W3C//DTD SVG 1.1//EN" "http://www.w3.org/Graphics/SVG/1.1/DTD/svg11.dtd">
<svg width="100%" height="100%" viewBox="0 0 440 469" version="1.1" xmlns="http://www.w3.org/2000/svg" xmlns:xlink="http://www.w3.org/1999/xlink" xml:space="preserve" xmlns:serif="http://www.serif.com/" style="fill-rule:evenodd;clip-rule:evenodd;stroke-linecap:square;stroke-linejoin:round;stroke-miterlimit:1.5;">
    <g transform="matrix(1,0,0,1,-3582.57,-8895.08)">
        <g transform="matrix(1,0,0,1,2450.99,8747.49)">
            <g transform="matrix(1,0,0,1,480.011,-869.442)">
                <g transform="matrix(0.996719,0,0,0.898553,336.545,796.52)">
                    <g>
                        <g transform="matrix(0.340351,0,0,0.340351,237.169,149.702)">
                            <path d="M983.178,281.181L820.111,281.181L820.111,282.063L612.09,860.289L381.152,281.181L233.069,281.181L233.069,290.877C245.41,290.877 257.75,297.929 265.683,314.676C274.497,331.423 279.786,356.985 279.786,396.65L279.786,819.743C279.786,897.31 269.209,999.557 233.069,1021.59L233.069,1031.29L336.198,1031.29L336.198,1021.59C303.585,1007.49 289.482,938.738 289.482,819.743L289.482,373.733L553.033,1031.29L561.848,1031.29L820.111,312.913L820.111,916.702C820.111,994.269 798.956,1021.59 772.513,1021.59L772.513,1031.29L983.178,1031.29L983.178,1021.59C969.956,1021.59 958.497,1015.42 949.683,998.676C940.868,981.928 935.58,955.485 935.58,916.702L935.58,396.65C935.58,319.083 956.734,290.877 983.178,290.877L983.178,281.181Z" style="fill:rgb(35,31,32);fill-rule:nonzero;"/>
                        </g>
                        <g transform="matrix(0.340351,0,0,0.340351,421.33,414.89)">
                            <path d="M983.178,281.181L820.111,281.181L820.111,282.063L612.09,860.289L381.152,281.181L233.069,281.181L233.069,290.877C245.41,290.877 257.75,297.929 265.683,314.676C274.497,331.423 279.786,356.985 279.786,396.65L279.786,819.743C279.786,897.31 269.209,999.557 233.069,1021.59L233.069,1031.29L336.198,1031.29L336.198,1021.59C303.585,1007.49 289.482,938.738 289.482,819.743L289.482,373.733L553.033,1031.29L561.848,1031.29L820.111,312.913L820.111,916.702C820.111,994.269 798.956,1021.59 772.513,1021.59L772.513,1031.29L983.178,1031.29L983.178,1021.59C969.956,1021.59 958.497,1015.42 949.683,998.676C940.868,981.928 935.58,955.485 935.58,916.702L935.58,396.65C935.58,319.083 956.734,290.877 983.178,290.877L983.178,281.181Z" style="fill:rgb(35,31,32);fill-rule:nonzero;"/>
                        </g>
                    </g>
                </g>
                <g transform="matrix(1.15772,0,0,1.0381,-5318.98,-9163.18)">
                    <path d="M5413.05,9808.36L5412.42,9808.36L5412.42,9806.96L5413.05,9806.96C5449.22,9806.96 5480.03,9820.36 5501.82,9849.37C5523.55,9878.32 5536.29,9922.86 5536.29,9985.26L5536.29,9985.96L5535.03,9985.96L5535.03,9985.26C5535.03,9923.28 5522.44,9879.03 5500.85,9850.27C5479.31,9821.58 5448.82,9808.36 5413.05,9808.36Z" style="fill:rgb(35,31,32);"/>
                </g>
                <g transform="matrix(-1.15772,1.4178e-16,-1.2713e-16,-1.0381,7061.07,11665.9)">
                    <path d="M5413.05,9807.66C5484.99,9807.66 5535.66,9860.89 5535.66,9985.26" style="fill:none;stroke:rgb(35,31,32);stroke-width:0.95px;"/>
                </g>
            </g>
        </g>
    </g>
</svg>
