<?xml version="1.0" standalone="no"?>
<svg xmlns="http://www.w3.org/2000/svg" width="512" height="512"><defs><clipPath id="clip-path-dot-color"><path d="M 9 196v 17h 8.5a 8.5 8.5, 0, 0, 0, 0 -17" transform="rotate(180,17.5,204.5)"/><path d="M 9 247v 17h 8.5a 8.5 8.5, 0, 0, 0, 0 -17" transform="rotate(-90,17.5,255.5)"/><rect x="9" y="264" width="17" height="17" transform="rotate(0,17.5,272.5)"/><path d="M 9 281v 17h 8.5a 8.5 8.5, 0, 0, 0, 0 -17" transform="rotate(90,17.5,289.5)"/><circle cx="17.5" cy="323.5" r="8.5" transform="rotate(0,17.5,323.5)"/><path d="M 26 145v 17h 8.5a 8.5 8.5, 0, 0, 0, 0 -17" transform="rotate(-90,34.5,153.5)"/><rect x="26" y="162" width="17" height="17" transform="rotate(0,34.5,170.5)"/><rect x="26" y="179" width="17" height="17" transform="rotate(0,34.5,187.5)"/><path d="M 26 196v 17h 17a 17 17, 0, 0, 0, -17 -17" transform="rotate(90,34.5,204.5)"/><path d="M 26 230v 17h 8.5a 8.5 8.5, 0, 0, 0, 0 -17" transform="rotate(180,34.5,238.5)"/><path d="M 26 332v 17h 17a 17 17, 0, 0, 0, -17 -17" transform="rotate(-90,34.5,340.5)"/><path d="M 26 349v 17h 8.5a 8.5 8.5, 0, 0, 0, 0 -17" transform="rotate(90,34.5,357.5)"/><rect x="43" y="162" width="17" height="17" transform="rotate(0,51.5,170.5)"/><rect x="43" y="179" width="17" height="17" transform="rotate(0,51.5,187.5)"/><path d="M 43 213v 17h 17a 17 17, 0, 0, 0, -17 -17" transform="rotate(-90,51.5,221.5)"/><rect x="43" y="230" width="17" height="17" transform="rotate(0,51.5,238.5)"/><rect x="43" y="247" width="17" height="17" transform="rotate(0,51.5,255.5)"/><path d="M 43 264v 17h 8.5a 8.5 8.5, 0, 0, 0, 0 -17" transform="rotate(90,51.5,272.5)"/><circle cx="51.5" cy="306.5" r="8.5" transform="rotate(0,51.5,306.5)"/><path d="M 43 332v 17h 8.5a 8.5 8.5, 0, 0, 0, 0 -17" transform="rotate(0,51.5,340.5)"/><rect x="60" y="162" width="17" height="17" transform="rotate(0,68.5,170.5)"/><rect x="60" y="179" width="17" height="17" transform="rotate(0,68.5,187.5)"/><rect x="60" y="196" width="17" height="17" transform="rotate(0,68.5,204.5)"/><rect x="60" y="213" width="17" height="17" transform="rotate(0,68.5,221.5)"/><path d="M 60 247v 17h 8.5a 8.5 8.5, 0, 0, 0, 0 -17" transform="rotate(0,68.5,255.5)"/><circle cx="68.5" cy="289.5" r="8.5" transform="rotate(0,68.5,289.5)"/><circle cx="68.5" cy="357.5" r="8.5" transform="rotate(0,68.5,357.5)"/><path d="M 77 162v 17h 17a 17 17, 0, 0, 0, -17 -17" transform="rotate(0,85.5,170.5)"/><rect x="77" y="179" width="17" height="17" transform="rotate(0,85.5,187.5)"/><path d="M 77 213v 17h 17a 17 17, 0, 0, 0, -17 -17" transform="rotate(0,85.5,221.5)"/><path d="M 77 230v 17h 17a 17 17, 0, 0, 0, -17 -17" transform="rotate(180,85.5,238.5)"/><path d="M 77 315v 17h 8.5a 8.5 8.5, 0, 0, 0, 0 -17" transform="rotate(180,85.5,323.5)"/><path d="M 94 145v 17h 8.5a 8.5 8.5, 0, 0, 0, 0 -17" transform="rotate(180,102.5,153.5)"/><rect x="94" y="179" width="17" height="17" transform="rotate(0,102.5,187.5)"/><path d="M 94 196v 17h 8.5a 8.5 8.5, 0, 0, 0, 0 -17" transform="rotate(90,102.5,204.5)"/><path d="M 94 230v 17h 8.5a 8.5 8.5, 0, 0, 0, 0 -17" transform="rotate(0,102.5,238.5)"/><circle cx="102.5" cy="272.5" r="8.5" transform="rotate(0,102.5,272.5)"/><rect x="94" y="315" width="17" height="17" transform="rotate(0,102.5,323.5)"/><path d="M 94 332v 17h 8.5a 8.5 8.5, 0, 0, 0, 0 -17" transform="rotate(90,102.5,340.5)"/><rect x="111" y="145" width="17" height="17" transform="rotate(0,119.5,153.5)"/><path d="M 111 179v 17h 8.5a 8.5 8.5, 0, 0, 0, 0 -17" transform="rotate(0,119.5,187.5)"/><circle cx="119.5" cy="221.5" r="8.5" transform="rotate(0,119.5,221.5)"/><path d="M 111 247v 17h 8.5a 8.5 8.5, 0, 0, 0, 0 -17" transform="rotate(180,119.5,255.5)"/><path d="M 111 281v 17h 8.5a 8.5 8.5, 0, 0, 0, 0 -17" transform="rotate(180,119.5,289.5)"/><rect x="111" y="315" width="17" height="17" transform="rotate(0,119.5,323.5)"/><circle cx="119.5" cy="357.5" r="8.5" transform="rotate(0,119.5,357.5)"/><path d="M 128 145v 17h 17a 17 17, 0, 0, 0, -17 -17" transform="rotate(0,136.5,153.5)"/><path d="M 128 162v 17h 8.5a 8.5 8.5, 0, 0, 0, 0 -17" transform="rotate(90,136.5,170.5)"/><path d="M 128 196v 17h 8.5a 8.5 8.5, 0, 0, 0, 0 -17" transform="rotate(180,136.5,204.5)"/><path d="M 128 230v 17h 8.5a 8.5 8.5, 0, 0, 0, 0 -17" transform="rotate(-90,136.5,238.5)"/><rect x="128" y="247" width="17" height="17" transform="rotate(0,136.5,255.5)"/><rect x="128" y="264" width="17" height="17" transform="rotate(0,136.5,272.5)"/><rect x="128" y="281" width="17" height="17" transform="rotate(0,136.5,289.5)"/><rect x="128" y="298" width="17" height="17" transform="rotate(0,136.5,306.5)"/><rect x="128" y="315" width="17" height="17" transform="rotate(0,136.5,323.5)"/><path d="M 145 77v 17h 17a 17 17, 0, 0, 0, -17 -17" transform="rotate(-90,153.5,85.5)"/><rect x="145" y="94" width="17" height="17" transform="rotate(0,153.5,102.5)"/><rect x="145" y="111" width="17" height="17" transform="rotate(0,153.5,119.5)"/><path d="M 145 128v 17h 8.5a 8.5 8.5, 0, 0, 0, 0 -17" transform="rotate(90,153.5,136.5)"/><path d="M 145 179v 17h 17a 17 17, 0, 0, 0, -17 -17" transform="rotate(-90,153.5,187.5)"/><rect x="145" y="196" width="17" height="17" transform="rotate(0,153.5,204.5)"/><rect x="145" y="315" width="17" height="17" transform="rotate(0,153.5,323.5)"/><circle cx="153.5" cy="357.5" r="8.5" transform="rotate(0,153.5,357.5)"/><path d="M 145 383v 17h 17a 17 17, 0, 0, 0, -17 -17" transform="rotate(-90,153.5,391.5)"/><path d="M 145 400v 17h 17a 17 17, 0, 0, 0, -17 -17" transform="rotate(180,153.5,408.5)"/><path d="M 145 468v 17h 8.5a 8.5 8.5, 0, 0, 0, 0 -17" transform="rotate(180,153.5,476.5)"/><circle cx="170.5" cy="34.5" r="8.5" transform="rotate(0,170.5,34.5)"/><rect x="162" y="77" width="17" height="17" transform="rotate(0,170.5,85.5)"/><rect x="162" y="94" width="17" height="17" transform="rotate(0,170.5,102.5)"/><circle cx="170.5" cy="153.5" r="8.5" transform="rotate(0,170.5,153.5)"/><rect x="162" y="179" width="17" height="17" transform="rotate(0,170.5,187.5)"/><path d="M 162 196v 17h 17a 17 17, 0, 0, 0, -17 -17" transform="rotate(90,170.5,204.5)"/><path d="M 162 230v 17h 17a 17 17, 0, 0, 0, -17 -17" transform="rotate(-90,170.5,238.5)"/><rect x="162" y="247" width="17" height="17" transform="rotate(0,170.5,255.5)"/><rect x="162" y="264" width="17" height="17" transform="rotate(0,170.5,272.5)"/><path d="M 162 281v 17h 17a 17 17, 0, 0, 0, -17 -17" transform="rotate(180,170.5,289.5)"/><path d="M 162 315v 17h 8.5a 8.5 8.5, 0, 0, 0, 0 -17" transform="rotate(0,170.5,323.5)"/><path d="M 162 366v 17h 17a 17 17, 0, 0, 0, -17 -17" transform="rotate(-90,170.5,374.5)"/><rect x="162" y="383" width="17" height="17" transform="rotate(0,170.5,391.5)"/><rect x="162" y="400" width="17" height="17" transform="rotate(0,170.5,408.5)"/><rect x="162" y="417" width="17" height="17" transform="rotate(0,170.5,425.5)"/><path d="M 162 434v 17h 17a 17 17, 0, 0, 0, -17 -17" transform="rotate(180,170.5,442.5)"/><path d="M 162 468v 17h 17a 17 17, 0, 0, 0, -17 -17" transform="rotate(0,170.5,476.5)"/><path d="M 162 485v 17h 17a 17 17, 0, 0, 0, -17 -17" transform="rotate(180,170.5,493.5)"/><path d="M 179 9v 17h 8.5a 8.5 8.5, 0, 0, 0, 0 -17" transform="rotate(180,187.5,17.5)"/><path d="M 179 60v 17h 8.5a 8.5 8.5, 0, 0, 0, 0 -17" transform="rotate(-90,187.5,68.5)"/><rect x="179" y="77" width="17" height="17" transform="rotate(0,187.5,85.5)"/><rect x="179" y="94" width="17" height="17" transform="rotate(0,187.5,102.5)"/><rect x="179" y="111" width="17" height="17" transform="rotate(0,187.5,119.5)"/><path d="M 179 128v 17h 8.5a 8.5 8.5, 0, 0, 0, 0 -17" transform="rotate(90,187.5,136.5)"/><rect x="179" y="179" width="17" height="17" transform="rotate(0,187.5,187.5)"/><path d="M 179 230v 17h 8.5a 8.5 8.5, 0, 0, 0, 0 -17" transform="rotate(0,187.5,238.5)"/><path d="M 179 281v 17h 8.5a 8.5 8.5, 0, 0, 0, 0 -17" transform="rotate(0,187.5,289.5)"/><rect x="179" y="366" width="17" height="17" transform="rotate(0,187.5,374.5)"/><path d="M 179 434v 17h 8.5a 8.5 8.5, 0, 0, 0, 0 -17" transform="rotate(0,187.5,442.5)"/><rect x="179" y="485" width="17" height="17" transform="rotate(0,187.5,493.5)"/><rect x="196" y="9" width="17" height="17" transform="rotate(0,204.5,17.5)"/><rect x="196" y="26" width="17" height="17" transform="rotate(0,204.5,34.5)"/><path d="M 196 43v 17h 17a 17 17, 0, 0, 0, -17 -17" transform="rotate(180,204.5,51.5)"/><rect x="196" y="77" width="17" height="17" transform="rotate(0,204.5,85.5)"/><path d="M 196 145v 17h 17a 17 17, 0, 0, 0, -17 -17" transform="rotate(-90,204.5,153.5)"/><rect x="196" y="162" width="17" height="17" transform="rotate(0,204.5,170.5)"/><path d="M 196 179v 17h 17a 17 17, 0, 0, 0, -17 -17" transform="rotate(90,204.5,187.5)"/><path d="M 196 247v 17h 8.5a 8.5 8.5, 0, 0, 0, 0 -17" transform="rotate(-90,204.5,255.5)"/><path d="M 196 264v 17h 8.5a 8.5 8.5, 0, 0, 0, 0 -17" transform="rotate(90,204.5,272.5)"/><path d="M 196 315v 17h 8.5a 8.5 8.5, 0, 0, 0, 0 -17" transform="rotate(180,204.5,323.5)"/><path d="M 196 349v 17h 17a 17 17, 0, 0, 0, -17 -17" transform="rotate(-90,204.5,357.5)"/><path d="M 196 366v 17h 17a 17 17, 0, 0, 0, -17 -17" transform="rotate(90,204.5,374.5)"/><circle cx="204.5" cy="425.5" r="8.5" transform="rotate(0,204.5,425.5)"/><path d="M 196 468v 17h 8.5a 8.5 8.5, 0, 0, 0, 0 -17" transform="rotate(-90,204.5,476.5)"/><rect x="196" y="485" width="17" height="17" transform="rotate(0,204.5,493.5)"/><rect x="213" y="9" width="17" height="17" transform="rotate(0,221.5,17.5)"/><rect x="213" y="26" width="17" height="17" transform="rotate(0,221.5,34.5)"/><rect x="213" y="43" width="17" height="17" transform="rotate(0,221.5,51.5)"/><rect x="213" y="60" width="17" height="17" transform="rotate(0,221.5,68.5)"/><rect x="213" y="77" width="17" height="17" transform="rotate(0,221.5,85.5)"/><rect x="213" y="94" width="17" height="17" transform="rotate(0,221.5,102.5)"/><path d="M 213 111v 17h 8.5a 8.5 8.5, 0, 0, 0, 0 -17" transform="rotate(90,221.5,119.5)"/><rect x="213" y="145" width="17" height="17" transform="rotate(0,221.5,153.5)"/><rect x="213" y="162" width="17" height="17" transform="rotate(0,221.5,170.5)"/><path d="M 213 230v 17h 8.5a 8.5 8.5, 0, 0, 0, 0 -17" transform="rotate(180,221.5,238.5)"/><path d="M 213 281v 17h 8.5a 8.5 8.5, 0, 0, 0, 0 -17" transform="rotate(-90,221.5,289.5)"/><rect x="213" y="298" width="17" height="17" transform="rotate(0,221.5,306.5)"/><rect x="213" y="315" width="17" height="17" transform="rotate(0,221.5,323.5)"/><rect x="213" y="332" width="17" height="17" transform="rotate(0,221.5,340.5)"/><path d="M 213 349v 17h 17a 17 17, 0, 0, 0, -17 -17" transform="rotate(90,221.5,357.5)"/><circle cx="221.5" cy="408.5" r="8.5" transform="rotate(0,221.5,408.5)"/><circle cx="221.5" cy="442.5" r="8.5" transform="rotate(0,221.5,442.5)"/><rect x="213" y="485" width="17" height="17" transform="rotate(0,221.5,493.5)"/><path d="M 230 9v 17h 17a 17 17, 0, 0, 0, -17 -17" transform="rotate(0,238.5,17.5)"/><rect x="230" y="26" width="17" height="17" transform="rotate(0,238.5,34.5)"/><rect x="230" y="145" width="17" height="17" transform="rotate(0,238.5,153.5)"/><rect x="230" y="162" width="17" height="17" transform="rotate(0,238.5,170.5)"/><path d="M 230 179v 17h 8.5a 8.5 8.5, 0, 0, 0, 0 -17" transform="rotate(90,238.5,187.5)"/><rect x="230" y="230" width="17" height="17" transform="rotate(0,238.5,238.5)"/><rect x="230" y="247" width="17" height="17" transform="rotate(0,238.5,255.5)"/><path d="M 230 264v 17h 17a 17 17, 0, 0, 0, -17 -17" transform="rotate(180,238.5,272.5)"/><path d="M 230 315v 17h 8.5a 8.5 8.5, 0, 0, 0, 0 -17" transform="rotate(0,238.5,323.5)"/><path d="M 230 383v 17h 8.5a 8.5 8.5, 0, 0, 0, 0 -17" transform="rotate(180,238.5,391.5)"/><path d="M 230 417v 17h 8.5a 8.5 8.5, 0, 0, 0, 0 -17" transform="rotate(180,238.5,425.5)"/><path d="M 230 451v 17h 8.5a 8.5 8.5, 0, 0, 0, 0 -17" transform="rotate(-90,238.5,459.5)"/><rect x="230" y="468" width="17" height="17" transform="rotate(0,238.5,476.5)"/><rect x="230" y="485" width="17" height="17" transform="rotate(0,238.5,493.5)"/><rect x="247" y="26" width="17" height="17" transform="rotate(0,255.5,34.5)"/><rect x="247" y="43" width="17" height="17" transform="rotate(0,255.5,51.5)"/><rect x="247" y="60" width="17" height="17" transform="rotate(0,255.5,68.5)"/><path d="M 247 77v 17h 8.5a 8.5 8.5, 0, 0, 0, 0 -17" transform="rotate(90,255.5,85.5)"/><circle cx="255.5" cy="119.5" r="8.5" transform="rotate(0,255.5,119.5)"/><path d="M 247 145v 17h 8.5a 8.5 8.5, 0, 0, 0, 0 -17" transform="rotate(0,255.5,153.5)"/><circle cx="255.5" cy="204.5" r="8.5" transform="rotate(0,255.5,204.5)"/><path d="M 247 230v 17h 8.5a 8.5 8.5, 0, 0, 0, 0 -17" transform="rotate(0,255.5,238.5)"/><path d="M 247 264v 17h 8.5a 8.5 8.5, 0, 0, 0, 0 -17" transform="rotate(0,255.5,272.5)"/><path d="M 247 298v 17h 8.5a 8.5 8.5, 0, 0, 0, 0 -17" transform="rotate(180,255.5,306.5)"/><path d="M 247 366v 17h 8.5a 8.5 8.5, 0, 0, 0, 0 -17" transform="rotate(-90,255.5,374.5)"/><path d="M 247 383v 17h 17a 17 17, 0, 0, 0, -17 -17" transform="rotate(90,255.5,391.5)"/><path d="M 247 417v 17h 8.5a 8.5 8.5, 0, 0, 0, 0 -17" transform="rotate(0,255.5,425.5)"/><rect x="247" y="485" width="17" height="17" transform="rotate(0,255.5,493.5)"/><rect x="264" y="26" width="17" height="17" transform="rotate(0,272.5,34.5)"/><rect x="264" y="43" width="17" height="17" transform="rotate(0,272.5,51.5)"/><path d="M 264 94v 17h 8.5a 8.5 8.5, 0, 0, 0, 0 -17" transform="rotate(180,272.5,102.5)"/><circle cx="272.5" cy="255.5" r="8.5" transform="rotate(0,272.5,255.5)"/><path d="M 264 281v 17h 17a 17 17, 0, 0, 0, -17 -17" transform="rotate(-90,272.5,289.5)"/><rect x="264" y="298" width="17" height="17" transform="rotate(0,272.5,306.5)"/><rect x="264" y="315" width="17" height="17" transform="rotate(0,272.5,323.5)"/><path d="M 264 332v 17h 17a 17 17, 0, 0, 0, -17 -17" transform="rotate(180,272.5,340.5)"/><circle cx="272.5" cy="408.5" r="8.5" transform="rotate(0,272.5,408.5)"/><circle cx="272.5" cy="442.5" r="8.5" transform="rotate(0,272.5,442.5)"/><path d="M 264 468v 17h 17a 17 17, 0, 0, 0, -17 -17" transform="rotate(-90,272.5,476.5)"/><rect x="264" y="485" width="17" height="17" transform="rotate(0,272.5,493.5)"/><path d="M 281 9v 17h 17a 17 17, 0, 0, 0, -17 -17" transform="rotate(-90,289.5,17.5)"/><rect x="281" y="26" width="17" height="17" transform="rotate(0,289.5,34.5)"/><path d="M 281 43v 17h 17a 17 17, 0, 0, 0, -17 -17" transform="rotate(90,289.5,51.5)"/><path d="M 281 77v 17h 17a 17 17, 0, 0, 0, -17 -17" transform="rotate(-90,289.5,85.5)"/><rect x="281" y="94" width="17" height="17" transform="rotate(0,289.5,102.5)"/><path d="M 281 111v 17h 8.5a 8.5 8.5, 0, 0, 0, 0 -17" transform="rotate(90,289.5,119.5)"/><path d="M 281 179v 17h 8.5a 8.5 8.5, 0, 0, 0, 0 -17" transform="rotate(180,289.5,187.5)"/><path d="M 281 213v 17h 8.5a 8.5 8.5, 0, 0, 0, 0 -17" transform="rotate(180,289.5,221.5)"/><path d="M 281 281v 17h 8.5a 8.5 8.5, 0, 0, 0, 0 -17" transform="rotate(0,289.5,289.5)"/><path d="M 281 332v 17h 8.5a 8.5 8.5, 0, 0, 0, 0 -17" transform="rotate(0,289.5,340.5)"/><path d="M 281 366v 17h 8.5a 8.5 8.5, 0, 0, 0, 0 -17" transform="rotate(180,289.5,374.5)"/><path d="M 281 468v 17h 17a 17 17, 0, 0, 0, -17 -17" transform="rotate(0,289.5,476.5)"/><rect x="281" y="485" width="17" height="17" transform="rotate(0,289.5,493.5)"/><path d="M 298 9v 17h 17a 17 17, 0, 0, 0, -17 -17" transform="rotate(0,306.5,17.5)"/><path d="M 298 26v 17h 17a 17 17, 0, 0, 0, -17 -17" transform="rotate(90,306.5,34.5)"/><path d="M 298 60v 17h 17a 17 17, 0, 0, 0, -17 -17" transform="rotate(-90,306.5,68.5)"/><rect x="298" y="77" width="17" height="17" transform="rotate(0,306.5,85.5)"/><circle cx="306.5" cy="153.5" r="8.5" transform="rotate(0,306.5,153.5)"/><path d="M 298 179v 17h 8.5a 8.5 8.5, 0, 0, 0, 0 -17" transform="rotate(0,306.5,187.5)"/><rect x="298" y="213" width="17" height="17" transform="rotate(0,306.5,221.5)"/><path d="M 298 230v 17h 8.5a 8.5 8.5, 0, 0, 0, 0 -17" transform="rotate(90,306.5,238.5)"/><circle cx="306.5" cy="272.5" r="8.5" transform="rotate(0,306.5,272.5)"/><path d="M 298 366v 17h 17a 17 17, 0, 0, 0, -17 -17" transform="rotate(0,306.5,374.5)"/><path d="M 298 383v 17h 8.5a 8.5 8.5, 0, 0, 0, 0 -17" transform="rotate(90,306.5,391.5)"/><circle cx="306.5" cy="425.5" r="8.5" transform="rotate(0,306.5,425.5)"/><rect x="298" y="485" width="17" height="17" transform="rotate(0,306.5,493.5)"/><path d="M 315 43v 17h 8.5a 8.5 8.5, 0, 0, 0, 0 -17" transform="rotate(-90,323.5,51.5)"/><rect x="315" y="60" width="17" height="17" transform="rotate(0,323.5,68.5)"/><rect x="315" y="77" width="17" height="17" transform="rotate(0,323.5,85.5)"/><rect x="315" y="94" width="17" height="17" transform="rotate(0,323.5,102.5)"/><rect x="315" y="111" width="17" height="17" transform="rotate(0,323.5,119.5)"/><path d="M 315 128v 17h 8.5a 8.5 8.5, 0, 0, 0, 0 -17" transform="rotate(90,323.5,136.5)"/><path d="M 315 162v 17h 8.5a 8.5 8.5, 0, 0, 0, 0 -17" transform="rotate(180,323.5,170.5)"/><path d="M 315 196v 17h 8.5a 8.5 8.5, 0, 0, 0, 0 -17" transform="rotate(-90,323.5,204.5)"/><path d="M 315 213v 17h 17a 17 17, 0, 0, 0, -17 -17" transform="rotate(90,323.5,221.5)"/><circle cx="323.5" cy="255.5" r="8.5" transform="rotate(0,323.5,255.5)"/><path d="M 315 281v 17h 17a 17 17, 0, 0, 0, -17 -17" transform="rotate(-90,323.5,289.5)"/><path d="M 315 298v 17h 8.5a 8.5 8.5, 0, 0, 0, 0 -17" transform="rotate(90,323.5,306.5)"/><circle cx="323.5" cy="357.5" r="8.5" transform="rotate(0,323.5,357.5)"/><path d="M 315 434v 17h 17a 17 17, 0, 0, 0, -17 -17" transform="rotate(-90,323.5,442.5)"/><path d="M 315 451v 17h 8.5a 8.5 8.5, 0, 0, 0, 0 -17" transform="rotate(90,323.5,459.5)"/><rect x="315" y="485" width="17" height="17" transform="rotate(0,323.5,493.5)"/><rect x="332" y="77" width="17" height="17" transform="rotate(0,340.5,85.5)"/><path d="M 332 94v 17h 17a 17 17, 0, 0, 0, -17 -17" transform="rotate(90,340.5,102.5)"/><path d="M 332 145v 17h 17a 17 17, 0, 0, 0, -17 -17" transform="rotate(-90,340.5,153.5)"/><rect x="332" y="162" width="17" height="17" transform="rotate(0,340.5,170.5)"/><path d="M 332 179v 17h 8.5a 8.5 8.5, 0, 0, 0, 0 -17" transform="rotate(90,340.5,187.5)"/><path d="M 332 264v 17h 8.5a 8.5 8.5, 0, 0, 0, 0 -17" transform="rotate(-90,340.5,272.5)"/><path d="M 332 281v 17h 17a 17 17, 0, 0, 0, -17 -17" transform="rotate(90,340.5,289.5)"/><path d="M 332 417v 17h 17a 17 17, 0, 0, 0, -17 -17" transform="rotate(-90,340.5,425.5)"/><rect x="332" y="434" width="17" height="17" transform="rotate(0,340.5,442.5)"/><path d="M 332 468v 17h 8.5a 8.5 8.5, 0, 0, 0, 0 -17" transform="rotate(-90,340.5,476.5)"/><rect x="332" y="485" width="17" height="17" transform="rotate(0,340.5,493.5)"/><path d="M 349 9v 17h 8.5a 8.5 8.5, 0, 0, 0, 0 -17" transform="rotate(-90,357.5,17.5)"/><path d="M 349 26v 17h 8.5a 8.5 8.5, 0, 0, 0, 0 -17" transform="rotate(90,357.5,34.5)"/><path d="M 349 60v 17h 8.5a 8.5 8.5, 0, 0, 0, 0 -17" transform="rotate(-90,357.5,68.5)"/><path d="M 349 77v 17h 17a 17 17, 0, 0, 0, -17 -17" transform="rotate(90,357.5,85.5)"/><path d="M 349 111v 17h 8.5a 8.5 8.5, 0, 0, 0, 0 -17" transform="rotate(-90,357.5,119.5)"/><rect x="349" y="128" width="17" height="17" transform="rotate(0,357.5,136.5)"/><rect x="349" y="145" width="17" height="17" transform="rotate(0,357.5,153.5)"/><path d="M 349 213v 17h 8.5a 8.5 8.5, 0, 0, 0, 0 -17" transform="rotate(-90,357.5,221.5)"/><path d="M 349 230v 17h 17a 17 17, 0, 0, 0, -17 -17" transform="rotate(180,357.5,238.5)"/><path d="M 349 315v 17h 17a 17 17, 0, 0, 0, -17 -17" transform="rotate(-90,357.5,323.5)"/><rect x="349" y="332" width="17" height="17" transform="rotate(0,357.5,340.5)"/><rect x="349" y="349" width="17" height="17" transform="rotate(0,357.5,357.5)"/><rect x="349" y="366" width="17" height="17" transform="rotate(0,357.5,374.5)"/><rect x="349" y="383" width="17" height="17" transform="rotate(0,357.5,391.5)"/><rect x="349" y="400" width="17" height="17" transform="rotate(0,357.5,408.5)"/><rect x="349" y="417" width="17" height="17" transform="rotate(0,357.5,425.5)"/><path d="M 349 434v 17h 17a 17 17, 0, 0, 0, -17 -17" transform="rotate(90,357.5,442.5)"/><rect x="349" y="485" width="17" height="17" transform="rotate(0,357.5,493.5)"/><rect x="366" y="145" width="17" height="17" transform="rotate(0,374.5,153.5)"/><path d="M 366 179v 17h 8.5a 8.5 8.5, 0, 0, 0, 0 -17" transform="rotate(-90,374.5,187.5)"/><path d="M 366 196v 17h 17a 17 17, 0, 0, 0, -17 -17" transform="rotate(180,374.5,204.5)"/><path d="M 366 230v 17h 17a 17 17, 0, 0, 0, -17 -17" transform="rotate(0,374.5,238.5)"/><rect x="366" y="247" width="17" height="17" transform="rotate(0,374.5,255.5)"/><path d="M 366 264v 17h 17a 17 17, 0, 0, 0, -17 -17" transform="rotate(180,374.5,272.5)"/><path d="M 366 298v 17h 8.5a 8.5 8.5, 0, 0, 0, 0 -17" transform="rotate(-90,374.5,306.5)"/><rect x="366" y="315" width="17" height="17" transform="rotate(0,374.5,323.5)"/><rect x="366" y="332" width="17" height="17" transform="rotate(0,374.5,340.5)"/><rect x="366" y="349" width="17" height="17" transform="rotate(0,374.5,357.5)"/><rect x="366" y="417" width="17" height="17" transform="rotate(0,374.5,425.5)"/><circle cx="374.5" cy="459.5" r="8.5" transform="rotate(0,374.5,459.5)"/><rect x="366" y="485" width="17" height="17" transform="rotate(0,374.5,493.5)"/><rect x="383" y="145" width="17" height="17" transform="rotate(0,391.5,153.5)"/><path d="M 383 162v 17h 17a 17 17, 0, 0, 0, -17 -17" transform="rotate(180,391.5,170.5)"/><path d="M 383 196v 17h 8.5a 8.5 8.5, 0, 0, 0, 0 -17" transform="rotate(0,391.5,204.5)"/><rect x="383" y="247" width="17" height="17" transform="rotate(0,391.5,255.5)"/><rect x="383" y="264" width="17" height="17" transform="rotate(0,391.5,272.5)"/><path d="M 383 281v 17h 8.5a 8.5 8.5, 0, 0, 0, 0 -17" transform="rotate(90,391.5,289.5)"/><rect x="383" y="332" width="17" height="17" transform="rotate(0,391.5,340.5)"/><rect x="383" y="349" width="17" height="17" transform="rotate(0,391.5,357.5)"/><circle cx="391.5" cy="391.5" r="8.5" transform="rotate(0,391.5,391.5)"/><rect x="383" y="417" width="17" height="17" transform="rotate(0,391.5,425.5)"/><path d="M 383 485v 17h 8.5a 8.5 8.5, 0, 0, 0, 0 -17" transform="rotate(0,391.5,493.5)"/><rect x="400" y="145" width="17" height="17" transform="rotate(0,408.5,153.5)"/><rect x="400" y="162" width="17" height="17" transform="rotate(0,408.5,170.5)"/><path d="M 400 179v 17h 17a 17 17, 0, 0, 0, -17 -17" transform="rotate(180,408.5,187.5)"/><path d="M 400 230v 17h 8.5a 8.5 8.5, 0, 0, 0, 0 -17" transform="rotate(-90,408.5,238.5)"/><rect x="400" y="247" width="17" height="17" transform="rotate(0,408.5,255.5)"/><rect x="400" y="264" width="17" height="17" transform="rotate(0,408.5,272.5)"/><circle cx="408.5" cy="306.5" r="8.5" transform="rotate(0,408.5,306.5)"/><rect x="400" y="332" width="17" height="17" transform="rotate(0,408.5,340.5)"/><rect x="400" y="349" width="17" height="17" transform="rotate(0,408.5,357.5)"/><rect x="400" y="417" width="17" height="17" transform="rotate(0,408.5,425.5)"/><path d="M 400 434v 17h 8.5a 8.5 8.5, 0, 0, 0, 0 -17" transform="rotate(90,408.5,442.5)"/><path d="M 400 468v 17h 8.5a 8.5 8.5, 0, 0, 0, 0 -17" transform="rotate(180,408.5,476.5)"/><path d="M 417 145v 17h 17a 17 17, 0, 0, 0, -17 -17" transform="rotate(0,425.5,153.5)"/><rect x="417" y="162" width="17" height="17" transform="rotate(0,425.5,170.5)"/><rect x="417" y="179" width="17" height="17" transform="rotate(0,425.5,187.5)"/><circle cx="425.5" cy="221.5" r="8.5" transform="rotate(0,425.5,221.5)"/><rect x="417" y="247" width="17" height="17" transform="rotate(0,425.5,255.5)"/><path d="M 417 264v 17h 17a 17 17, 0, 0, 0, -17 -17" transform="rotate(90,425.5,272.5)"/><path d="M 417 332v 17h 17a 17 17, 0, 0, 0, -17 -17" transform="rotate(0,425.5,340.5)"/><rect x="417" y="349" width="17" height="17" transform="rotate(0,425.5,357.5)"/><rect x="417" y="366" width="17" height="17" transform="rotate(0,425.5,374.5)"/><rect x="417" y="383" width="17" height="17" transform="rotate(0,425.5,391.5)"/><rect x="417" y="400" width="17" height="17" transform="rotate(0,425.5,408.5)"/><path d="M 417 417v 17h 17a 17 17, 0, 0, 0, -17 -17" transform="rotate(90,425.5,425.5)"/><rect x="417" y="468" width="17" height="17" transform="rotate(0,425.5,476.5)"/><path d="M 417 485v 17h 8.5a 8.5 8.5, 0, 0, 0, 0 -17" transform="rotate(90,425.5,493.5)"/><rect x="434" y="162" width="17" height="17" transform="rotate(0,442.5,170.5)"/><path d="M 434 179v 17h 17a 17 17, 0, 0, 0, -17 -17" transform="rotate(90,442.5,187.5)"/><path d="M 434 230v 17h 17a 17 17, 0, 0, 0, -17 -17" transform="rotate(-90,442.5,238.5)"/><path d="M 434 247v 17h 17a 17 17, 0, 0, 0, -17 -17" transform="rotate(90,442.5,255.5)"/><path d="M 434 400v 17h 8.5a 8.5 8.5, 0, 0, 0, 0 -17" transform="rotate(0,442.5,408.5)"/><rect x="434" y="468" width="17" height="17" transform="rotate(0,442.5,476.5)"/><path d="M 451 162v 17h 8.5a 8.5 8.5, 0, 0, 0, 0 -17" transform="rotate(0,459.5,170.5)"/><rect x="451" y="230" width="17" height="17" transform="rotate(0,459.5,238.5)"/><circle cx="459.5" cy="272.5" r="8.5" transform="rotate(0,459.5,272.5)"/><path d="M 451 315v 17h 8.5a 8.5 8.5, 0, 0, 0, 0 -17" transform="rotate(-90,459.5,323.5)"/><rect x="451" y="332" width="17" height="17" transform="rotate(0,459.5,340.5)"/><rect x="451" y="349" width="17" height="17" transform="rotate(0,459.5,357.5)"/><path d="M 451 366v 17h 8.5a 8.5 8.5, 0, 0, 0, 0 -17" transform="rotate(90,459.5,374.5)"/><path d="M 451 434v 17h 8.5a 8.5 8.5, 0, 0, 0, 0 -17" transform="rotate(180,459.5,442.5)"/><rect x="451" y="468" width="17" height="17" transform="rotate(0,459.5,476.5)"/><path d="M 451 485v 17h 17a 17 17, 0, 0, 0, -17 -17" transform="rotate(180,459.5,493.5)"/><circle cx="476.5" cy="187.5" r="8.5" transform="rotate(0,476.5,187.5)"/><path d="M 468 213v 17h 17a 17 17, 0, 0, 0, -17 -17" transform="rotate(-90,476.5,221.5)"/><rect x="468" y="230" width="17" height="17" transform="rotate(0,476.5,238.5)"/><rect x="468" y="349" width="17" height="17" transform="rotate(0,476.5,357.5)"/><path d="M 468 383v 17h 17a 17 17, 0, 0, 0, -17 -17" transform="rotate(-90,476.5,391.5)"/><path d="M 468 400v 17h 8.5a 8.5 8.5, 0, 0, 0, 0 -17" transform="rotate(90,476.5,408.5)"/><rect x="468" y="434" width="17" height="17" transform="rotate(0,476.5,442.5)"/><rect x="468" y="468" width="17" height="17" transform="rotate(0,476.5,476.5)"/><path d="M 468 485v 17h 17a 17 17, 0, 0, 0, -17 -17" transform="rotate(90,476.5,493.5)"/><circle cx="493.5" cy="170.5" r="8.5" transform="rotate(0,493.5,170.5)"/><path d="M 485 213v 17h 17a 17 17, 0, 0, 0, -17 -17" transform="rotate(0,493.5,221.5)"/><path d="M 485 230v 17h 17a 17 17, 0, 0, 0, -17 -17" transform="rotate(90,493.5,238.5)"/><circle cx="493.5" cy="272.5" r="8.5" transform="rotate(0,493.5,272.5)"/><path d="M 485 349v 17h 8.5a 8.5 8.5, 0, 0, 0, 0 -17" transform="rotate(0,493.5,357.5)"/><path d="M 485 383v 17h 8.5a 8.5 8.5, 0, 0, 0, 0 -17" transform="rotate(0,493.5,391.5)"/><path d="M 485 417v 17h 8.5a 8.5 8.5, 0, 0, 0, 0 -17" transform="rotate(-90,493.5,425.5)"/><path d="M 485 434v 17h 17a 17 17, 0, 0, 0, -17 -17" transform="rotate(90,493.5,442.5)"/><path d="M 485 468v 17h 8.5a 8.5 8.5, 0, 0, 0, 0 -17" transform="rotate(0,493.5,476.5)"/></clipPath><clipPath id="clip-path-corners-square-color-0-0"><path clip-rule="evenodd" d="M 9 51.5v 34a 42.5 42.5, 0, 0, 0, 42.5 42.5h 34a 42.5 42.5, 0, 0, 0, 42.5 -42.5v -34a 42.5 42.5, 0, 0, 0, -42.5 -42.5h -34a 42.5 42.5, 0, 0, 0, -42.5 42.5M 51.5 26h 34a 25.5 25.5, 0, 0, 1, 25.5 25.5v 34a 25.5 25.5, 0, 0, 1, -25.5 25.5h -34a 25.5 25.5, 0, 0, 1, -25.5 -25.5v -34a 25.5 25.5, 0, 0, 1, 25.5 -25.5" transform="rotate(0,68.5,68.5)"/></clipPath><clipPath id="clip-path-corners-dot-color-0-0"><circle cx="68.5" cy="68.5" r="25.5" transform="rotate(0,68.5,68.5)"/></clipPath><clipPath id="clip-path-corners-square-color-1-0"><path clip-rule="evenodd" d="M 383 51.5v 34a 42.5 42.5, 0, 0, 0, 42.5 42.5h 34a 42.5 42.5, 0, 0, 0, 42.5 -42.5v -34a 42.5 42.5, 0, 0, 0, -42.5 -42.5h -34a 42.5 42.5, 0, 0, 0, -42.5 42.5M 425.5 26h 34a 25.5 25.5, 0, 0, 1, 25.5 25.5v 34a 25.5 25.5, 0, 0, 1, -25.5 25.5h -34a 25.5 25.5, 0, 0, 1, -25.5 -25.5v -34a 25.5 25.5, 0, 0, 1, 25.5 -25.5" transform="rotate(90,442.5,68.5)"/></clipPath><clipPath id="clip-path-corners-dot-color-1-0"><circle cx="442.5" cy="68.5" r="25.5" transform="rotate(90,442.5,68.5)"/></clipPath><clipPath id="clip-path-corners-square-color-0-1"><path clip-rule="evenodd" d="M 9 425.5v 34a 42.5 42.5, 0, 0, 0, 42.5 42.5h 34a 42.5 42.5, 0, 0, 0, 42.5 -42.5v -34a 42.5 42.5, 0, 0, 0, -42.5 -42.5h -34a 42.5 42.5, 0, 0, 0, -42.5 42.5M 51.5 400h 34a 25.5 25.5, 0, 0, 1, 25.5 25.5v 34a 25.5 25.5, 0, 0, 1, -25.5 25.5h -34a 25.5 25.5, 0, 0, 1, -25.5 -25.5v -34a 25.5 25.5, 0, 0, 1, 25.5 -25.5" transform="rotate(-90,68.5,442.5)"/></clipPath><clipPath id="clip-path-corners-dot-color-0-1"><circle cx="68.5" cy="442.5" r="25.5" transform="rotate(-90,68.5,442.5)"/></clipPath></defs><rect x="0" y="0" height="512" width="512" clip-path="url('#clip-path-background-color')" fill="transparent"/><rect x="0" y="0" height="512" width="512" clip-path="url('#clip-path-dot-color')" fill="#FFFFFF"/><rect x="9" y="9" height="119" width="119" clip-path="url('#clip-path-corners-square-color-0-0')" fill="#FFFFFF"/><rect x="43" y="43" height="51" width="51" clip-path="url('#clip-path-corners-dot-color-0-0')" fill="#FFFFFF"/><rect x="383" y="9" height="119" width="119" clip-path="url('#clip-path-corners-square-color-1-0')" fill="#FFFFFF"/><rect x="417" y="43" height="51" width="51" clip-path="url('#clip-path-corners-dot-color-1-0')" fill="#FFFFFF"/><rect x="9" y="383" height="119" width="119" clip-path="url('#clip-path-corners-square-color-0-1')" fill="#FFFFFF"/><rect x="43" y="417" height="51" width="51" clip-path="url('#clip-path-corners-dot-color-0-1')" fill="#FFFFFF"/></svg>