<?xml version="1.0" standalone="no"?>
<svg xmlns="http://www.w3.org/2000/svg" width="512" height="512"><defs><clipPath id="clip-path-dot-color"><path d="M 81 207v 14h 14a 14 14, 0, 0, 0, -14 -14" transform="rotate(-90,88,214)"/><rect x="81" y="221" width="14" height="14" transform="rotate(0,88,228)"/><rect x="81" y="235" width="14" height="14" transform="rotate(0,88,242)"/><rect x="81" y="249" width="14" height="14" transform="rotate(0,88,256)"/><path d="M 81 263v 14h 7a 7 7, 0, 0, 0, 0 -14" transform="rotate(90,88,270)"/><path d="M 81 291v 14h 7a 7 7, 0, 0, 0, 0 -14" transform="rotate(180,88,298)"/><path d="M 95 193v 14h 14a 14 14, 0, 0, 0, -14 -14" transform="rotate(-90,102,200)"/><path d="M 95 207v 14h 14a 14 14, 0, 0, 0, -14 -14" transform="rotate(90,102,214)"/><path d="M 95 235v 14h 7a 7 7, 0, 0, 0, 0 -14" transform="rotate(0,102,242)"/><path d="M 95 277v 14h 14a 14 14, 0, 0, 0, -14 -14" transform="rotate(-90,102,284)"/><rect x="95" y="291" width="14" height="14" transform="rotate(0,102,298)"/><path d="M 95 305v 14h 14a 14 14, 0, 0, 0, -14 -14" transform="rotate(180,102,312)"/><rect x="109" y="193" width="14" height="14" transform="rotate(0,116,200)"/><path d="M 109 221v 14h 7a 7 7, 0, 0, 0, 0 -14" transform="rotate(180,116,228)"/><path d="M 109 277v 14h 7a 7 7, 0, 0, 0, 0 -14" transform="rotate(0,116,284)"/><path d="M 109 305v 14h 7a 7 7, 0, 0, 0, 0 -14" transform="rotate(0,116,312)"/><rect x="123" y="193" width="14" height="14" transform="rotate(0,130,200)"/><rect x="123" y="207" width="14" height="14" transform="rotate(0,130,214)"/><rect x="123" y="221" width="14" height="14" transform="rotate(0,130,228)"/><path d="M 123 249v 14h 7a 7 7, 0, 0, 0, 0 -14" transform="rotate(-90,130,256)"/><path d="M 123 263v 14h 7a 7 7, 0, 0, 0, 0 -14" transform="rotate(90,130,270)"/><circle cx="130" cy="298" r="7" transform="rotate(0,130,298)"/><rect x="137" y="193" width="14" height="14" transform="rotate(0,144,200)"/><rect x="137" y="207" width="14" height="14" transform="rotate(0,144,214)"/><rect x="137" y="221" width="14" height="14" transform="rotate(0,144,228)"/><path d="M 137 235v 14h 7a 7 7, 0, 0, 0, 0 -14" transform="rotate(90,144,242)"/><circle cx="144" cy="312" r="7" transform="rotate(0,144,312)"/><rect x="151" y="193" width="14" height="14" transform="rotate(0,158,200)"/><path d="M 151 207v 14h 14a 14 14, 0, 0, 0, -14 -14" transform="rotate(90,158,214)"/><path d="M 151 277v 14h 14a 14 14, 0, 0, 0, -14 -14" transform="rotate(-90,158,284)"/><path d="M 151 291v 14h 7a 7 7, 0, 0, 0, 0 -14" transform="rotate(90,158,298)"/><path d="M 165 193v 14h 7a 7 7, 0, 0, 0, 0 -14" transform="rotate(0,172,200)"/><path d="M 165 221v 14h 7a 7 7, 0, 0, 0, 0 -14" transform="rotate(180,172,228)"/><path d="M 165 249v 14h 7a 7 7, 0, 0, 0, 0 -14" transform="rotate(180,172,256)"/><path d="M 165 277v 14h 7a 7 7, 0, 0, 0, 0 -14" transform="rotate(0,172,284)"/><circle cx="172" cy="312" r="7" transform="rotate(0,172,312)"/><path d="M 179 207v 14h 7a 7 7, 0, 0, 0, 0 -14" transform="rotate(-90,186,214)"/><rect x="179" y="221" width="14" height="14" transform="rotate(0,186,228)"/><path d="M 179 249v 14h 7a 7 7, 0, 0, 0, 0 -14" transform="rotate(0,186,256)"/><path d="M 193 109v 14h 7a 7 7, 0, 0, 0, 0 -14" transform="rotate(180,200,116)"/><path d="M 193 151v 14h 7a 7 7, 0, 0, 0, 0 -14" transform="rotate(-90,200,158)"/><rect x="193" y="165" width="14" height="14" transform="rotate(0,200,172)"/><rect x="193" y="179" width="14" height="14" transform="rotate(0,200,186)"/><path d="M 193 193v 14h 7a 7 7, 0, 0, 0, 0 -14" transform="rotate(90,200,200)"/><path d="M 193 221v 14h 14a 14 14, 0, 0, 0, -14 -14" transform="rotate(0,200,228)"/><path d="M 193 235v 14h 14a 14 14, 0, 0, 0, -14 -14" transform="rotate(180,200,242)"/><path d="M 193 263v 14h 7a 7 7, 0, 0, 0, 0 -14" transform="rotate(-90,200,270)"/><path d="M 193 277v 14h 7a 7 7, 0, 0, 0, 0 -14" transform="rotate(90,200,284)"/><circle cx="200" cy="326" r="7" transform="rotate(0,200,326)"/><path d="M 193 347v 14h 14a 14 14, 0, 0, 0, -14 -14" transform="rotate(-90,200,354)"/><rect x="193" y="361" width="14" height="14" transform="rotate(0,200,368)"/><rect x="193" y="375" width="14" height="14" transform="rotate(0,200,382)"/><rect x="193" y="389" width="14" height="14" transform="rotate(0,200,396)"/><path d="M 193 403v 14h 14a 14 14, 0, 0, 0, -14 -14" transform="rotate(180,200,410)"/><path d="M 207 81v 14h 7a 7 7, 0, 0, 0, 0 -14" transform="rotate(-90,214,88)"/><rect x="207" y="95" width="14" height="14" transform="rotate(0,214,102)"/><rect x="207" y="109" width="14" height="14" transform="rotate(0,214,116)"/><rect x="207" y="123" width="14" height="14" transform="rotate(0,214,130)"/><path d="M 207 137v 14h 14a 14 14, 0, 0, 0, -14 -14" transform="rotate(180,214,144)"/><circle cx="214" cy="214" r="7" transform="rotate(0,214,214)"/><rect x="207" y="235" width="14" height="14" transform="rotate(0,214,242)"/><path d="M 207 291v 14h 14a 14 14, 0, 0, 0, -14 -14" transform="rotate(-90,214,298)"/><path d="M 207 305v 14h 14a 14 14, 0, 0, 0, -14 -14" transform="rotate(180,214,312)"/><path d="M 207 333v 14h 14a 14 14, 0, 0, 0, -14 -14" transform="rotate(-90,214,340)"/><rect x="207" y="347" width="14" height="14" transform="rotate(0,214,354)"/><path d="M 207 375v 14h 7a 7 7, 0, 0, 0, 0 -14" transform="rotate(0,214,382)"/><path d="M 207 403v 14h 14a 14 14, 0, 0, 0, -14 -14" transform="rotate(0,214,410)"/><path d="M 207 417v 14h 14a 14 14, 0, 0, 0, -14 -14" transform="rotate(180,214,424)"/><path d="M 221 109v 14h 14a 14 14, 0, 0, 0, -14 -14" transform="rotate(0,228,116)"/><rect x="221" y="123" width="14" height="14" transform="rotate(0,228,130)"/><rect x="221" y="137" width="14" height="14" transform="rotate(0,228,144)"/><path d="M 221 165v 14h 7a 7 7, 0, 0, 0, 0 -14" transform="rotate(-90,228,172)"/><rect x="221" y="179" width="14" height="14" transform="rotate(0,228,186)"/><path d="M 221 193v 14h 7a 7 7, 0, 0, 0, 0 -14" transform="rotate(90,228,200)"/><path d="M 221 221v 14h 14a 14 14, 0, 0, 0, -14 -14" transform="rotate(-90,228,228)"/><path d="M 221 235v 14h 14a 14 14, 0, 0, 0, -14 -14" transform="rotate(90,228,242)"/><rect x="221" y="291" width="14" height="14" transform="rotate(0,228,298)"/><path d="M 221 305v 14h 14a 14 14, 0, 0, 0, -14 -14" transform="rotate(90,228,312)"/><path d="M 221 333v 14h 14a 14 14, 0, 0, 0, -14 -14" transform="rotate(0,228,340)"/><rect x="221" y="347" width="14" height="14" transform="rotate(0,228,354)"/><path d="M 221 361v 14h 14a 14 14, 0, 0, 0, -14 -14" transform="rotate(180,228,368)"/><rect x="221" y="417" width="14" height="14" transform="rotate(0,228,424)"/><path d="M 235 81v 14h 14a 14 14, 0, 0, 0, -14 -14" transform="rotate(-90,242,88)"/><path d="M 235 95v 14h 7a 7 7, 0, 0, 0, 0 -14" transform="rotate(90,242,102)"/><rect x="235" y="123" width="14" height="14" transform="rotate(0,242,130)"/><path d="M 235 137v 14h 14a 14 14, 0, 0, 0, -14 -14" transform="rotate(90,242,144)"/><path d="M 235 179v 14h 7a 7 7, 0, 0, 0, 0 -14" transform="rotate(0,242,186)"/><path d="M 235 207v 14h 14a 14 14, 0, 0, 0, -14 -14" transform="rotate(-90,242,214)"/><path d="M 235 221v 14h 14a 14 14, 0, 0, 0, -14 -14" transform="rotate(90,242,228)"/><circle cx="242" cy="270" r="7" transform="rotate(0,242,270)"/><rect x="235" y="291" width="14" height="14" transform="rotate(0,242,298)"/><path d="M 235 319v 14h 7a 7 7, 0, 0, 0, 0 -14" transform="rotate(180,242,326)"/><rect x="235" y="347" width="14" height="14" transform="rotate(0,242,354)"/><path d="M 235 361v 14h 14a 14 14, 0, 0, 0, -14 -14" transform="rotate(90,242,368)"/><path d="M 235 403v 14h 7a 7 7, 0, 0, 0, 0 -14" transform="rotate(-90,242,410)"/><rect x="235" y="417" width="14" height="14" transform="rotate(0,242,424)"/><path d="M 249 81v 14h 7a 7 7, 0, 0, 0, 0 -14" transform="rotate(0,256,88)"/><path d="M 249 123v 14h 7a 7 7, 0, 0, 0, 0 -14" transform="rotate(0,256,130)"/><path d="M 249 151v 14h 7a 7 7, 0, 0, 0, 0 -14" transform="rotate(-90,256,158)"/><path d="M 249 165v 14h 7a 7 7, 0, 0, 0, 0 -14" transform="rotate(90,256,172)"/><path d="M 249 193v 14h 14a 14 14, 0, 0, 0, -14 -14" transform="rotate(-90,256,200)"/><rect x="249" y="207" width="14" height="14" transform="rotate(0,256,214)"/><path d="M 249 277v 14h 14a 14 14, 0, 0, 0, -14 -14" transform="rotate(-90,256,284)"/><rect x="249" y="291" width="14" height="14" transform="rotate(0,256,298)"/><rect x="249" y="305" width="14" height="14" transform="rotate(0,256,312)"/><rect x="249" y="319" width="14" height="14" transform="rotate(0,256,326)"/><rect x="249" y="333" width="14" height="14" transform="rotate(0,256,340)"/><rect x="249" y="347" width="14" height="14" transform="rotate(0,256,354)"/><path d="M 249 375v 14h 7a 7 7, 0, 0, 0, 0 -14" transform="rotate(180,256,382)"/><rect x="249" y="417" width="14" height="14" transform="rotate(0,256,424)"/><path d="M 263 95v 14h 7a 7 7, 0, 0, 0, 0 -14" transform="rotate(180,270,102)"/><path d="M 263 137v 14h 7a 7 7, 0, 0, 0, 0 -14" transform="rotate(180,270,144)"/><path d="M 263 179v 14h 7a 7 7, 0, 0, 0, 0 -14" transform="rotate(-90,270,186)"/><rect x="263" y="193" width="14" height="14" transform="rotate(0,270,200)"/><path d="M 263 207v 14h 14a 14 14, 0, 0, 0, -14 -14" transform="rotate(90,270,214)"/><path d="M 263 235v 14h 7a 7 7, 0, 0, 0, 0 -14" transform="rotate(-90,270,242)"/><rect x="263" y="249" width="14" height="14" transform="rotate(0,270,256)"/><rect x="263" y="263" width="14" height="14" transform="rotate(0,270,270)"/><path d="M 263 277v 14h 14a 14 14, 0, 0, 0, -14 -14" transform="rotate(90,270,284)"/><path d="M 263 333v 14h 14a 14 14, 0, 0, 0, -14 -14" transform="rotate(0,270,340)"/><path d="M 263 347v 14h 14a 14 14, 0, 0, 0, -14 -14" transform="rotate(90,270,354)"/><rect x="263" y="375" width="14" height="14" transform="rotate(0,270,382)"/><rect x="263" y="389" width="14" height="14" transform="rotate(0,270,396)"/><rect x="263" y="403" width="14" height="14" transform="rotate(0,270,410)"/><rect x="263" y="417" width="14" height="14" transform="rotate(0,270,424)"/><path d="M 277 81v 14h 7a 7 7, 0, 0, 0, 0 -14" transform="rotate(-90,284,88)"/><rect x="277" y="95" width="14" height="14" transform="rotate(0,284,102)"/><rect x="277" y="109" width="14" height="14" transform="rotate(0,284,116)"/><rect x="277" y="123" width="14" height="14" transform="rotate(0,284,130)"/><rect x="277" y="137" width="14" height="14" transform="rotate(0,284,144)"/><circle cx="284" cy="172" r="7" transform="rotate(0,284,172)"/><rect x="277" y="193" width="14" height="14" transform="rotate(0,284,200)"/><path d="M 277 263v 14h 7a 7 7, 0, 0, 0, 0 -14" transform="rotate(0,284,270)"/><circle cx="284" cy="298" r="7" transform="rotate(0,284,298)"/><rect x="277" y="375" width="14" height="14" transform="rotate(0,284,382)"/><rect x="277" y="417" width="14" height="14" transform="rotate(0,284,424)"/><rect x="291" y="109" width="14" height="14" transform="rotate(0,298,116)"/><path d="M 291 137v 14h 7a 7 7, 0, 0, 0, 0 -14" transform="rotate(0,298,144)"/><path d="M 291 179v 14h 14a 14 14, 0, 0, 0, -14 -14" transform="rotate(-90,298,186)"/><path d="M 291 193v 14h 14a 14 14, 0, 0, 0, -14 -14" transform="rotate(90,298,200)"/><circle cx="298" cy="284" r="7" transform="rotate(0,298,284)"/><path d="M 291 305v 14h 7a 7 7, 0, 0, 0, 0 -14" transform="rotate(180,298,312)"/><path d="M 291 333v 14h 14a 14 14, 0, 0, 0, -14 -14" transform="rotate(-90,298,340)"/><path d="M 291 347v 14h 14a 14 14, 0, 0, 0, -14 -14" transform="rotate(180,298,354)"/><rect x="291" y="375" width="14" height="14" transform="rotate(0,298,382)"/><path d="M 291 403v 14h 7a 7 7, 0, 0, 0, 0 -14" transform="rotate(-90,298,410)"/><rect x="291" y="417" width="14" height="14" transform="rotate(0,298,424)"/><path d="M 305 81v 14h 7a 7 7, 0, 0, 0, 0 -14" transform="rotate(-90,312,88)"/><rect x="305" y="95" width="14" height="14" transform="rotate(0,312,102)"/><path d="M 305 109v 14h 14a 14 14, 0, 0, 0, -14 -14" transform="rotate(90,312,116)"/><path d="M 305 165v 14h 7a 7 7, 0, 0, 0, 0 -14" transform="rotate(-90,312,172)"/><path d="M 305 179v 14h 14a 14 14, 0, 0, 0, -14 -14" transform="rotate(90,312,186)"/><path d="M 305 207v 14h 14a 14 14, 0, 0, 0, -14 -14" transform="rotate(-90,312,214)"/><rect x="305" y="221" width="14" height="14" transform="rotate(0,312,228)"/><path d="M 305 235v 14h 14a 14 14, 0, 0, 0, -14 -14" transform="rotate(180,312,242)"/><rect x="305" y="305" width="14" height="14" transform="rotate(0,312,312)"/><rect x="305" y="319" width="14" height="14" transform="rotate(0,312,326)"/><rect x="305" y="333" width="14" height="14" transform="rotate(0,312,340)"/><rect x="305" y="347" width="14" height="14" transform="rotate(0,312,354)"/><rect x="305" y="361" width="14" height="14" transform="rotate(0,312,368)"/><rect x="305" y="375" width="14" height="14" transform="rotate(0,312,382)"/><rect x="305" y="417" width="14" height="14" transform="rotate(0,312,424)"/><path d="M 319 193v 14h 14a 14 14, 0, 0, 0, -14 -14" transform="rotate(-90,326,200)"/><rect x="319" y="207" width="14" height="14" transform="rotate(0,326,214)"/><rect x="319" y="235" width="14" height="14" transform="rotate(0,326,242)"/><path d="M 319 249v 14h 14a 14 14, 0, 0, 0, -14 -14" transform="rotate(180,326,256)"/><path d="M 319 277v 14h 7a 7 7, 0, 0, 0, 0 -14" transform="rotate(180,326,284)"/><rect x="319" y="305" width="14" height="14" transform="rotate(0,326,312)"/><rect x="319" y="361" width="14" height="14" transform="rotate(0,326,368)"/><path d="M 319 375v 14h 14a 14 14, 0, 0, 0, -14 -14" transform="rotate(90,326,382)"/><path d="M 319 403v 14h 7a 7 7, 0, 0, 0, 0 -14" transform="rotate(-90,326,410)"/><rect x="319" y="417" width="14" height="14" transform="rotate(0,326,424)"/><rect x="333" y="193" width="14" height="14" transform="rotate(0,340,200)"/><path d="M 333 207v 14h 14a 14 14, 0, 0, 0, -14 -14" transform="rotate(90,340,214)"/><rect x="333" y="235" width="14" height="14" transform="rotate(0,340,242)"/><rect x="333" y="249" width="14" height="14" transform="rotate(0,340,256)"/><rect x="333" y="263" width="14" height="14" transform="rotate(0,340,270)"/><path d="M 333 277v 14h 14a 14 14, 0, 0, 0, -14 -14" transform="rotate(90,340,284)"/><rect x="333" y="305" width="14" height="14" transform="rotate(0,340,312)"/><circle cx="340" cy="340" r="7" transform="rotate(0,340,340)"/><rect x="333" y="361" width="14" height="14" transform="rotate(0,340,368)"/><rect x="333" y="417" width="14" height="14" transform="rotate(0,340,424)"/><path d="M 347 193v 14h 7a 7 7, 0, 0, 0, 0 -14" transform="rotate(0,354,200)"/><path d="M 347 221v 14h 14a 14 14, 0, 0, 0, -14 -14" transform="rotate(-90,354,228)"/><path d="M 347 235v 14h 14a 14 14, 0, 0, 0, -14 -14" transform="rotate(90,354,242)"/><path d="M 347 263v 14h 7a 7 7, 0, 0, 0, 0 -14" transform="rotate(0,354,270)"/><path d="M 347 291v 14h 14a 14 14, 0, 0, 0, -14 -14" transform="rotate(-90,354,298)"/><rect x="347" y="305" width="14" height="14" transform="rotate(0,354,312)"/><rect x="347" y="361" width="14" height="14" transform="rotate(0,354,368)"/><path d="M 347 375v 14h 14a 14 14, 0, 0, 0, -14 -14" transform="rotate(180,354,382)"/><path d="M 347 417v 14h 7a 7 7, 0, 0, 0, 0 -14" transform="rotate(0,354,424)"/><rect x="361" y="221" width="14" height="14" transform="rotate(0,368,228)"/><circle cx="368" cy="256" r="7" transform="rotate(0,368,256)"/><path d="M 361 277v 14h 7a 7 7, 0, 0, 0, 0 -14" transform="rotate(-90,368,284)"/><rect x="361" y="291" width="14" height="14" transform="rotate(0,368,298)"/><rect x="361" y="305" width="14" height="14" transform="rotate(0,368,312)"/><rect x="361" y="319" width="14" height="14" transform="rotate(0,368,326)"/><rect x="361" y="333" width="14" height="14" transform="rotate(0,368,340)"/><rect x="361" y="347" width="14" height="14" transform="rotate(0,368,354)"/><rect x="361" y="361" width="14" height="14" transform="rotate(0,368,368)"/><rect x="361" y="375" width="14" height="14" transform="rotate(0,368,382)"/><path d="M 375 207v 14h 7a 7 7, 0, 0, 0, 0 -14" transform="rotate(-90,382,214)"/><path d="M 375 221v 14h 14a 14 14, 0, 0, 0, -14 -14" transform="rotate(90,382,228)"/><path d="M 375 263v 14h 7a 7 7, 0, 0, 0, 0 -14" transform="rotate(180,382,270)"/><path d="M 375 291v 14h 14a 14 14, 0, 0, 0, -14 -14" transform="rotate(0,382,298)"/><rect x="375" y="305" width="14" height="14" transform="rotate(0,382,312)"/><rect x="375" y="319" width="14" height="14" transform="rotate(0,382,326)"/><rect x="375" y="361" width="14" height="14" transform="rotate(0,382,368)"/><rect x="375" y="375" width="14" height="14" transform="rotate(0,382,382)"/><path d="M 375 389v 14h 7a 7 7, 0, 0, 0, 0 -14" transform="rotate(90,382,396)"/><circle cx="396" cy="200" r="7" transform="rotate(0,396,200)"/><path d="M 389 235v 14h 7a 7 7, 0, 0, 0, 0 -14" transform="rotate(-90,396,242)"/><rect x="389" y="249" width="14" height="14" transform="rotate(0,396,256)"/><path d="M 389 263v 14h 14a 14 14, 0, 0, 0, -14 -14" transform="rotate(90,396,270)"/><path d="M 389 319v 14h 7a 7 7, 0, 0, 0, 0 -14" transform="rotate(0,396,326)"/><rect x="389" y="361" width="14" height="14" transform="rotate(0,396,368)"/><path d="M 389 403v 14h 7a 7 7, 0, 0, 0, 0 -14" transform="rotate(-90,396,410)"/><path d="M 389 417v 14h 7a 7 7, 0, 0, 0, 0 -14" transform="rotate(90,396,424)"/><path d="M 403 277v 14h 7a 7 7, 0, 0, 0, 0 -14" transform="rotate(180,410,284)"/><path d="M 403 305v 14h 7a 7 7, 0, 0, 0, 0 -14" transform="rotate(180,410,312)"/><path d="M 403 347v 14h 7a 7 7, 0, 0, 0, 0 -14" transform="rotate(-90,410,354)"/><rect x="403" y="361" width="14" height="14" transform="rotate(0,410,368)"/><path d="M 403 375v 14h 14a 14 14, 0, 0, 0, -14 -14" transform="rotate(180,410,382)"/><path d="M 417 221v 14h 7a 7 7, 0, 0, 0, 0 -14" transform="rotate(-90,424,228)"/><path d="M 417 235v 14h 7a 7 7, 0, 0, 0, 0 -14" transform="rotate(90,424,242)"/><path d="M 417 277v 14h 7a 7 7, 0, 0, 0, 0 -14" transform="rotate(0,424,284)"/><path d="M 417 305v 14h 7a 7 7, 0, 0, 0, 0 -14" transform="rotate(0,424,312)"/><path d="M 417 375v 14h 7a 7 7, 0, 0, 0, 0 -14" transform="rotate(0,424,382)"/><circle cx="424" cy="424" r="7" transform="rotate(0,424,424)"/><circle cx="18" cy="256" r="7" transform="rotate(0,18,256)"/><path d="M 25 207v 14h 7a 7 7, 0, 0, 0, 0 -14" transform="rotate(180,32,214)"/><circle cx="32" cy="242" r="7" transform="rotate(0,32,242)"/><path d="M 25 263v 14h 7a 7 7, 0, 0, 0, 0 -14" transform="rotate(-90,32,270)"/><path d="M 25 277v 14h 14a 14 14, 0, 0, 0, -14 -14" transform="rotate(180,32,284)"/><path d="M 25 305v 14h 7a 7 7, 0, 0, 0, 0 -14" transform="rotate(180,32,312)"/><path d="M 39 137v 14h 7a 7 7, 0, 0, 0, 0 -14" transform="rotate(180,46,144)"/><path d="M 39 165v 14h 7a 7 7, 0, 0, 0, 0 -14" transform="rotate(180,46,172)"/><path d="M 39 193v 14h 7a 7 7, 0, 0, 0, 0 -14" transform="rotate(-90,46,200)"/><rect x="39" y="207" width="14" height="14" transform="rotate(0,46,214)"/><path d="M 39 221v 14h 14a 14 14, 0, 0, 0, -14 -14" transform="rotate(180,46,228)"/><rect x="39" y="277" width="14" height="14" transform="rotate(0,46,284)"/><rect x="39" y="291" width="14" height="14" transform="rotate(0,46,298)"/><path d="M 39 305v 14h 14a 14 14, 0, 0, 0, -14 -14" transform="rotate(90,46,312)"/><path d="M 39 333v 14h 7a 7 7, 0, 0, 0, 0 -14" transform="rotate(180,46,340)"/><circle cx="46" cy="368" r="7" transform="rotate(0,46,368)"/><path d="M 53 137v 14h 7a 7 7, 0, 0, 0, 0 -14" transform="rotate(0,60,144)"/><path d="M 53 165v 14h 7a 7 7, 0, 0, 0, 0 -14" transform="rotate(0,60,172)"/><path d="M 53 207v 14h 14a 14 14, 0, 0, 0, -14 -14" transform="rotate(0,60,214)"/><rect x="53" y="221" width="14" height="14" transform="rotate(0,60,228)"/><rect x="53" y="235" width="14" height="14" transform="rotate(0,60,242)"/><path d="M 53 249v 14h 7a 7 7, 0, 0, 0, 0 -14" transform="rotate(90,60,256)"/><path d="M 53 277v 14h 7a 7 7, 0, 0, 0, 0 -14" transform="rotate(0,60,284)"/><path d="M 53 333v 14h 7a 7 7, 0, 0, 0, 0 -14" transform="rotate(0,60,340)"/><path d="M 123 53v 14h 7a 7 7, 0, 0, 0, 0 -14" transform="rotate(180,130,60)"/><path d="M 137 53v 14h 7a 7 7, 0, 0, 0, 0 -14" transform="rotate(0,144,60)"/><circle cx="144" cy="452" r="7" transform="rotate(0,144,452)"/><path d="M 165 39v 14h 7a 7 7, 0, 0, 0, 0 -14" transform="rotate(-90,172,46)"/><path d="M 165 53v 14h 7a 7 7, 0, 0, 0, 0 -14" transform="rotate(90,172,60)"/><path d="M 165 445v 14h 7a 7 7, 0, 0, 0, 0 -14" transform="rotate(-90,172,452)"/><path d="M 165 459v 14h 7a 7 7, 0, 0, 0, 0 -14" transform="rotate(90,172,466)"/><path d="M 193 25v 14h 14a 14 14, 0, 0, 0, -14 -14" transform="rotate(-90,200,32)"/><rect x="193" y="39" width="14" height="14" transform="rotate(0,200,46)"/><path d="M 193 53v 14h 14a 14 14, 0, 0, 0, -14 -14" transform="rotate(180,200,60)"/><circle cx="200" cy="466" r="7" transform="rotate(0,200,466)"/><path d="M 207 25v 14h 7a 7 7, 0, 0, 0, 0 -14" transform="rotate(0,214,32)"/><rect x="207" y="53" width="14" height="14" transform="rotate(0,214,60)"/><path d="M 207 445v 14h 7a 7 7, 0, 0, 0, 0 -14" transform="rotate(180,214,452)"/><path d="M 221 39v 14h 7a 7 7, 0, 0, 0, 0 -14" transform="rotate(-90,228,46)"/><path d="M 221 53v 14h 14a 14 14, 0, 0, 0, -14 -14" transform="rotate(90,228,60)"/><path d="M 221 445v 14h 7a 7 7, 0, 0, 0, 0 -14" transform="rotate(0,228,452)"/><circle cx="242" cy="32" r="7" transform="rotate(0,242,32)"/><path d="M 235 459v 14h 7a 7 7, 0, 0, 0, 0 -14" transform="rotate(180,242,466)"/><circle cx="256" cy="18" r="7" transform="rotate(0,256,18)"/><path d="M 249 53v 14h 7a 7 7, 0, 0, 0, 0 -14" transform="rotate(180,256,60)"/><rect x="249" y="459" width="14" height="14" transform="rotate(0,256,466)"/><path d="M 263 53v 14h 7a 7 7, 0, 0, 0, 0 -14" transform="rotate(0,270,60)"/><path d="M 263 445v 14h 7a 7 7, 0, 0, 0, 0 -14" transform="rotate(-90,270,452)"/><path d="M 263 459v 14h 14a 14 14, 0, 0, 0, -14 -14" transform="rotate(90,270,466)"/><path d="M 277 25v 14h 14a 14 14, 0, 0, 0, -14 -14" transform="rotate(-90,284,32)"/><path d="M 277 39v 14h 7a 7 7, 0, 0, 0, 0 -14" transform="rotate(90,284,46)"/><circle cx="284" cy="480" r="7" transform="rotate(0,284,480)"/><rect x="291" y="25" width="14" height="14" transform="rotate(0,298,32)"/><circle cx="298" cy="60" r="7" transform="rotate(0,298,60)"/><path d="M 291 445v 14h 7a 7 7, 0, 0, 0, 0 -14" transform="rotate(180,298,452)"/><path d="M 305 25v 14h 14a 14 14, 0, 0, 0, -14 -14" transform="rotate(0,312,32)"/><path d="M 305 39v 14h 7a 7 7, 0, 0, 0, 0 -14" transform="rotate(90,312,46)"/><rect x="305" y="445" width="14" height="14" transform="rotate(0,312,452)"/><circle cx="312" cy="480" r="7" transform="rotate(0,312,480)"/><path d="M 319 445v 14h 14a 14 14, 0, 0, 0, -14 -14" transform="rotate(0,326,452)"/><path d="M 319 459v 14h 7a 7 7, 0, 0, 0, 0 -14" transform="rotate(90,326,466)"/><path d="M 333 39v 14h 7a 7 7, 0, 0, 0, 0 -14" transform="rotate(-90,340,46)"/><path d="M 333 53v 14h 7a 7 7, 0, 0, 0, 0 -14" transform="rotate(90,340,60)"/><circle cx="368" cy="60" r="7" transform="rotate(0,368,60)"/><path d="M 361 445v 14h 7a 7 7, 0, 0, 0, 0 -14" transform="rotate(180,368,452)"/><path d="M 375 445v 14h 7a 7 7, 0, 0, 0, 0 -14" transform="rotate(0,382,452)"/><path d="M 445 123v 14h 7a 7 7, 0, 0, 0, 0 -14" transform="rotate(-90,452,130)"/><path d="M 445 137v 14h 7a 7 7, 0, 0, 0, 0 -14" transform="rotate(90,452,144)"/><path d="M 445 165v 14h 7a 7 7, 0, 0, 0, 0 -14" transform="rotate(180,452,172)"/><path d="M 445 193v 14h 14a 14 14, 0, 0, 0, -14 -14" transform="rotate(-90,452,200)"/><path d="M 445 207v 14h 7a 7 7, 0, 0, 0, 0 -14" transform="rotate(90,452,214)"/><path d="M 445 249v 14h 7a 7 7, 0, 0, 0, 0 -14" transform="rotate(-90,452,256)"/><rect x="445" y="263" width="14" height="14" transform="rotate(0,452,270)"/><rect x="445" y="277" width="14" height="14" transform="rotate(0,452,284)"/><rect x="445" y="291" width="14" height="14" transform="rotate(0,452,298)"/><rect x="445" y="305" width="14" height="14" transform="rotate(0,452,312)"/><path d="M 445 319v 14h 7a 7 7, 0, 0, 0, 0 -14" transform="rotate(90,452,326)"/><path d="M 445 347v 14h 7a 7 7, 0, 0, 0, 0 -14" transform="rotate(-90,452,354)"/><rect x="445" y="361" width="14" height="14" transform="rotate(0,452,368)"/><path d="M 445 375v 14h 7a 7 7, 0, 0, 0, 0 -14" transform="rotate(90,452,382)"/><path d="M 459 165v 14h 7a 7 7, 0, 0, 0, 0 -14" transform="rotate(0,466,172)"/><rect x="459" y="193" width="14" height="14" transform="rotate(0,466,200)"/><rect x="459" y="263" width="14" height="14" transform="rotate(0,466,270)"/><path d="M 473 193v 14h 14a 14 14, 0, 0, 0, -14 -14" transform="rotate(0,480,200)"/><path d="M 473 207v 14h 7a 7 7, 0, 0, 0, 0 -14" transform="rotate(90,480,214)"/><circle cx="480" cy="242" r="7" transform="rotate(0,480,242)"/><path d="M 473 263v 14h 7a 7 7, 0, 0, 0, 0 -14" transform="rotate(0,480,270)"/><circle cx="480" cy="298" r="7" transform="rotate(0,480,298)"/><circle cx="480" cy="326" r="7" transform="rotate(0,480,326)"/><circle cx="494" cy="256" r="7" transform="rotate(0,494,256)"/></clipPath><clipPath id="clip-path-corners-square-color-0-0"><path clip-rule="evenodd" d="M 130 81a 49 49 0 1 0 0.1 0zm 0 14a 35 35 0 1 1 -0.1 0Z" transform="rotate(0,130,130)"/></clipPath><clipPath id="clip-path-corners-dot-color-0-0"><circle cx="130" cy="130" r="21" transform="rotate(0,130,130)"/></clipPath><clipPath id="clip-path-corners-square-color-1-0"><path clip-rule="evenodd" d="M 382 81a 49 49 0 1 0 0.1 0zm 0 14a 35 35 0 1 1 -0.1 0Z" transform="rotate(90,382,130)"/></clipPath><clipPath id="clip-path-corners-dot-color-1-0"><circle cx="382" cy="130" r="21" transform="rotate(90,382,130)"/></clipPath><clipPath id="clip-path-corners-square-color-0-1"><path clip-rule="evenodd" d="M 130 333a 49 49 0 1 0 0.1 0zm 0 14a 35 35 0 1 1 -0.1 0Z" transform="rotate(-90,130,382)"/></clipPath><clipPath id="clip-path-corners-dot-color-0-1"><circle cx="130" cy="382" r="21" transform="rotate(-90,130,382)"/></clipPath></defs><rect x="0" y="0" height="512" width="512" clip-path="url('#clip-path-background-color')" fill="#00000000"/><rect x="0" y="0" height="512" width="512" clip-path="url('#clip-path-dot-color')" fill="#ffffff"/><rect x="81" y="81" height="98" width="98" clip-path="url('#clip-path-corners-square-color-0-0')" fill="#ffffff"/><rect x="109" y="109" height="42" width="42" clip-path="url('#clip-path-corners-dot-color-0-0')" fill="#ffffff"/><rect x="333" y="81" height="98" width="98" clip-path="url('#clip-path-corners-square-color-1-0')" fill="#ffffff"/><rect x="361" y="109" height="42" width="42" clip-path="url('#clip-path-corners-dot-color-1-0')" fill="#ffffff"/><rect x="81" y="333" height="98" width="98" clip-path="url('#clip-path-corners-square-color-0-1')" fill="#ffffff"/><rect x="109" y="361" height="42" width="42" clip-path="url('#clip-path-corners-dot-color-0-1')" fill="#ffffff"/></svg>