<?xml version="1.0" encoding="UTF-8" standalone="no"?>
<!DOCTYPE svg PUBLIC "-//W3C//DTD SVG 1.1//EN" "http://www.w3.org/Graphics/SVG/1.1/DTD/svg11.dtd">
<svg width="100%" height="100%" viewBox="0 0 272 213" version="1.1" xmlns="http://www.w3.org/2000/svg" xmlns:xlink="http://www.w3.org/1999/xlink" xml:space="preserve" xmlns:serif="http://www.serif.com/" style="fill-rule:evenodd;clip-rule:evenodd;stroke-linejoin:round;stroke-miterlimit:2;">
    <g transform="matrix(1,0,0,1,-1676.13,-11481.1)">
        <g transform="matrix(1.63585,0,0,1.63585,434.949,9755.04)">
            <g>
                <g>
                    <g transform="matrix(0.45931,0,0,0.45931,-1561.4,-3236.19)">
                        <path d="M5192.56,9343.64C5198.79,9343.74 5244.57,9342.91 5285.4,9379.48C5343.05,9431.1 5349.36,9521.41 5294.8,9580.32C5262.02,9615.71 5211.62,9632.88 5161.59,9621.76C5091.15,9606.11 5042.56,9538.29 5053.01,9464.5C5057.81,9430.59 5074.69,9400.56 5099.2,9378.9C5140.18,9342.66 5185.77,9343.71 5192.56,9343.64ZM5192.56,9347.58L5192.56,9347.59C5187.04,9347.65 5140.21,9346.47 5099.67,9384.36C5039.91,9440.2 5042.19,9535.85 5105.38,9588.68C5163.88,9637.59 5252.01,9629.29 5300.22,9568.67C5344.42,9513.09 5339.1,9432.17 5285.39,9383.22C5244.97,9346.37 5199.11,9347.62 5192.56,9347.58Z" style="fill:white;"/>
                    </g>
                    <g transform="matrix(0.0805901,0.398589,-0.398589,0.0805901,4228.88,-1706.73)">
                        <path d="M5192.56,9343.39C5198.37,9343.48 5245.46,9342.53 5286.77,9380.47C5346.89,9435.69 5348.29,9531.34 5287.73,9587.72C5228,9643.31 5133.76,9636.58 5082.43,9572.77C5033.46,9511.91 5043.27,9422.59 5104.85,9373.8C5143.86,9342.89 5184.62,9343.46 5192.56,9343.39ZM5192.56,9347.84L5192.56,9347.85C5187.45,9347.9 5139.51,9346.58 5098.67,9385.69C5039.74,9442.12 5043.16,9537.5 5106.84,9589.47C5165.99,9637.75 5254.27,9628.2 5301.56,9566.59C5344.5,9510.65 5338.16,9430.34 5284.05,9382.25C5244,9346.66 5199.25,9347.88 5192.56,9347.84Z" style="fill:white"/>
                    </g>
                </g>
            </g>
        </g>
    </g>
</svg>
